# 3ds Max Wavefront OBJ Exporter v0.99 - (c)2007 guruware
# File Created: 08.11.2025 12:03:34

mtllib Book_Singular.mtl

#
# object book
#

v  -332.3029 0.2646 -1.5996
v  -320.5909 0.2646 -1.5996
v  -320.5909 0.2646 0.4043
v  -332.3029 0.2646 0.4043
v  -332.3029 12.6992 -1.5996
v  -332.3029 12.6992 0.4043
v  -320.5909 12.6992 0.4043
v  -320.5909 12.6992 -1.5996
v  -332.7360 -0.1196 -2.4538
v  -332.7360 -0.1196 1.2585
v  -332.7360 13.0834 1.2585
v  -332.7360 13.0834 -2.4538
v  -320.3961 -0.1196 1.2585
v  -320.3961 13.0834 1.2585
v  -320.3961 -0.1196 -2.4538
v  -320.3961 13.0834 -2.4538
v  -320.3961 -0.1196 -1.6455
v  -332.3262 -0.1196 -1.6455
v  -320.3961 13.0834 -1.6455
v  -332.3262 13.0834 -1.6455
v  -332.3262 13.0834 0.4502
v  -320.3961 13.0834 0.4502
v  -320.3961 -0.1196 0.4502
v  -332.3262 -0.1196 0.4502
# 24 vertices

vn 0.5637 -0.6240 0.5412
vn 0.4030 -0.3348 0.8518
vn 0.4030 -0.3348 -0.8518
vn 0.5637 -0.6240 -0.5412
vn 0.5637 0.6240 0.5412
vn 0.5637 0.6240 -0.5412
vn 0.4030 0.3348 -0.8518
vn 0.4030 0.3348 0.8518
vn -0.5774 -0.5774 -0.5774
vn -0.5774 -0.5774 0.5774
vn -0.5774 0.5774 0.5774
vn -0.5774 0.5774 -0.5774
vn 0.5774 -0.5774 0.5774
vn 0.5774 0.5774 0.5774
vn 0.5774 -0.5774 -0.5774
vn 0.5774 0.5774 -0.5774
vn 0.5882 -0.5955 0.5472
vn 0.2684 -0.9224 0.2778
vn 0.5882 0.5955 0.5472
vn 0.2684 0.9224 0.2778
vn 0.2684 0.9224 -0.2778
vn 0.5882 0.5955 -0.5472
vn 0.5882 -0.5955 -0.5472
vn 0.2684 -0.9224 -0.2778
# 24 vertex normals

vt 0.5268 0.7147 0.0000
vt 0.5272 0.6379 0.0000
vt 0.5404 0.6380 0.0000
vt 0.5400 0.7148 0.0000
vt 0.5280 0.4796 0.0000
vt 0.5412 0.4797 0.0000
vt 0.5408 0.5565 0.0000
vt 0.5276 0.5564 0.0000
vt 0.4029 0.4997 0.0000
vt 0.4003 0.4997 0.0000
vt 0.4003 0.5928 0.0000
vt 0.4029 0.5928 0.0000
vt 0.4850 0.5006 0.0000
vt 0.4850 0.5919 0.0000
vt 0.3182 0.5006 0.0000
vt 0.3182 0.5919 0.0000
vt 0.3159 0.4981 0.0000
vt 0.4053 0.4982 0.0000
vt 0.3159 0.5943 0.0000
vt 0.4053 0.5942 0.0000
vt 0.3979 0.5942 0.0000
vt 0.4873 0.5943 0.0000
vt 0.4873 0.4981 0.0000
vt 0.3979 0.4982 0.0000
vt 0.6745 0.6546 0.0000
vt 0.6745 0.6121 0.0000
vt 0.6768 0.6121 0.0000
vt 0.6768 0.6546 0.0000
vt 0.6745 0.5375 0.0000
vt 0.6768 0.5375 0.0000
vt 0.6745 0.4633 0.0000
vt 0.6768 0.4633 0.0000
vt 0.6842 0.5116 0.0000
vt 0.6842 0.5536 0.0000
vt 0.6818 0.5536 0.0000
vt 0.6818 0.5116 0.0000
vt 0.6842 0.6291 0.0000
vt 0.6818 0.6291 0.0000
vt 0.6842 0.7037 0.0000
vt 0.6818 0.7037 0.0000
vt 0.6842 0.7759 0.0000
vt 0.6818 0.7759 0.0000
vt 0.6745 0.6669 0.0000
vt 0.6768 0.6669 0.0000
# 44 texture coords

o book
g book
usemtl 01___Default
s 2
f 1/1/1 2/2/2 3/3/3 4/4/4 
s 4
f 5/5/5 6/6/6 7/7/7 8/8/8 
s 8
f 9/9/9 10/10/10 11/11/11 12/12/12 
s 16
f 10/10/10 13/13/13 14/14/14 11/11/11 
s 32
f 3/3/3 2/2/2 8/8/8 7/7/7 
s 64
f 15/15/15 9/9/9 12/12/12 16/16/16 
s off
f 9/9/9 15/15/15 17/17/17 18/18/18 
f 15/15/15 16/16/16 19/19/19 17/17/17 
f 16/16/16 12/12/12 20/20/20 19/19/19 
f 12/12/12 11/11/11 21/21/21 20/20/20 
f 11/11/11 14/14/14 22/22/22 21/21/21 
f 14/14/14 13/13/13 23/23/23 22/22/22 
f 13/13/13 10/10/10 24/24/24 23/23/23 
f 10/10/10 9/9/9 18/18/18 24/24/24 
f 18/25/18 17/26/17 2/27/2 1/28/1 
f 17/26/17 19/29/19 8/30/8 2/27/2 
f 19/29/19 20/31/20 5/32/5 8/30/8 
f 20/33/20 21/34/21 6/35/6 5/36/5 
f 21/34/21 22/37/22 7/38/7 6/35/6 
f 22/37/22 23/39/23 3/40/3 7/38/7 
f 23/39/23 24/41/24 4/42/4 3/40/3 
f 24/43/24 18/25/18 1/28/1 4/44/4 
# 22 polygons

