# 3ds Max Wavefront OBJ Exporter v0.99 - (c)2007 guruware
# File Created: 08.11.2025 14:19:52

#
# object AlarmClock
#

v  -300.719055 37.634468 -11.643045
v  -300.140442 37.441589 -11.643045
v  -300.911957 38.213112 -11.643045
v  -291.842651 37.634468 -11.643045
v  -291.649750 38.213112 -11.643045
v  -292.421265 37.441589 -11.643045
v  -291.842651 42.079098 -11.643045
v  -292.421265 42.271980 -11.643045
v  -291.649750 41.500458 -11.643045
v  -300.719055 42.079098 -11.643045
v  -300.911957 41.500458 -11.643045
v  -300.140442 42.271980 -11.643045
v  -293.220673 37.941826 -11.888584
v  -299.341034 37.941826 -11.888584
v  -299.799835 38.101410 -11.888584
v  -299.952759 38.553547 -11.888584
v  -299.952759 41.160019 -11.888584
v  -299.799835 41.618813 -11.888584
v  -299.341034 41.771744 -11.888584
v  -293.220673 41.771744 -11.888584
v  -292.761871 41.618813 -11.888584
v  -292.608948 41.160019 -11.888584
v  -292.608948 38.553547 -11.888584
v  -292.761871 38.094757 -11.888584
v  -299.603363 38.134022 -7.360506
v  -292.958344 38.134022 -7.360506
v  -292.460236 38.271606 -7.360506
v  -292.294189 38.684349 -7.360506
v  -292.294189 41.029221 -7.360506
v  -292.460236 41.441963 -7.360506
v  -292.958344 41.579544 -7.360506
v  -299.603363 41.579544 -7.360506
v  -300.101471 41.441963 -7.360506
v  -300.267517 41.029221 -7.360506
v  -300.267517 38.684349 -7.360506
v  -300.101471 38.271606 -7.360506
v  -299.483429 38.213516 -7.724730
v  -293.078278 38.213516 -7.724730
v  -292.598145 38.344749 -7.724730
v  -292.438110 38.738449 -7.724730
v  -292.438110 40.975121 -7.724730
v  -292.598145 41.368820 -7.724730
v  -293.078278 41.500053 -7.724730
v  -299.483429 41.500053 -7.724730
v  -299.963562 41.368820 -7.724730
v  -300.123596 40.975121 -7.724730
v  -300.123596 38.738449 -7.724730
v  -299.963562 38.344749 -7.724730
v  -300.140442 37.441589 -7.774297
v  -300.080688 37.809662 -7.406828
v  -292.481018 37.809662 -7.406828
v  -292.421265 37.441589 -7.774297
v  -292.421265 42.271980 -7.774297
v  -292.481018 41.903908 -7.406828
v  -300.080688 41.903908 -7.406828
v  -300.140442 42.271980 -7.774297
v  -300.911957 38.213112 -7.774297
v  -300.544250 38.272781 -7.404622
v  -300.443207 37.913986 -7.411638
v  -300.719055 37.634468 -7.774297
v  -292.118500 37.913986 -7.411638
v  -291.842651 37.634468 -7.774297
v  -292.017456 38.272781 -7.404622
v  -291.649750 38.213112 -7.774297
v  -292.017456 41.440788 -7.404622
v  -291.649750 41.500458 -7.774297
v  -292.118500 41.799583 -7.411638
v  -291.842651 42.079098 -7.774297
v  -300.443207 41.799583 -7.411638
v  -300.719055 42.079098 -7.774297
v  -300.544250 41.440788 -7.404622
v  -300.911957 41.500458 -7.774297
v  -300.140442 42.271980 -10.518734
v  -292.421265 42.271980 -10.518734
v  -300.140442 42.271980 -9.234480
v  -292.421265 42.271980 -9.234480
v  -300.140442 42.367779 -10.518734
v  -300.140442 42.367779 -9.234480
v  -292.421265 42.367779 -9.234480
v  -292.421265 42.367779 -10.518734
v  -299.931946 42.523296 -10.304691
v  -299.931946 42.523296 -9.448522
v  -292.629761 42.523296 -9.448522
v  -292.629761 42.523296 -10.304691
# 84 vertices

vn -0.148641 -0.915968 0.372705
vn -0.148537 -0.823578 -0.547408
vn 0.148537 -0.823578 -0.547408
vn 0.148641 -0.915968 0.372705
vn -0.148642 0.915968 0.372705
vn 0.148642 0.915968 0.372705
vn 0.470083 0.834327 0.287960
vn -0.470083 0.834327 0.287960
vn 0.588597 0.109903 0.800921
vn -0.588597 0.109903 0.800921
vn -0.588597 -0.109903 0.800921
vn 0.588597 -0.109903 0.800921
vn 0.916567 -0.148738 0.371191
vn 0.797681 -0.131721 -0.588518
vn 0.797682 0.131721 -0.588518
vn 0.916567 0.148738 0.371191
vn 0.131227 -0.018490 -0.991180
vn -0.131297 -0.018785 -0.991165
vn -0.131227 0.018490 -0.991180
vn 0.131227 0.018490 -0.991180
vn -0.797681 -0.131721 -0.588518
vn -0.916567 -0.148738 0.371191
vn -0.916567 0.148738 0.371191
vn -0.797682 0.131721 -0.588518
vn -0.658296 -0.658798 0.364186
vn -0.599452 -0.587649 -0.543439
vn 0.599720 -0.587660 -0.543131
vn 0.658296 -0.658798 0.364186
vn 0.148537 0.823578 -0.547408
vn 0.470083 0.834327 -0.287960
vn 0.599720 0.587660 -0.543131
vn -0.658296 0.658798 0.364186
vn 0.658296 0.658798 0.364186
vn -0.599720 0.587660 -0.543131
vn -0.015655 -0.227547 -0.973641
vn 0.015008 -0.227555 -0.973650
vn -0.099989 -0.131694 -0.986235
vn -0.099821 0.135070 -0.985795
vn -0.148537 0.823578 -0.547408
vn -0.015008 0.227554 -0.973650
vn 0.015008 0.227554 -0.973650
vn 0.099821 0.135070 -0.985795
vn 0.099821 -0.135070 -0.985795
vn -0.072291 -0.442991 0.893607
vn 0.072291 -0.442991 0.893607
vn -0.090311 0.506380 0.857568
vn 0.090311 0.506380 0.857568
vn 0.446886 -0.075080 0.891435
vn 0.446886 0.075080 0.891435
vn -0.423438 -0.097152 0.900701
vn -0.423439 0.097152 0.900700
vn 0.072291 0.442991 0.893607
vn -0.072291 0.442991 0.893607
vn 0.090311 -0.506379 0.857569
vn -0.090311 -0.506379 0.857569
vn -0.446886 0.075080 0.891435
vn -0.446886 -0.075080 0.891435
vn 0.423439 0.097152 0.900700
vn 0.423438 -0.097152 0.900701
vn -0.070110 0.641085 0.764260
vn 0.070110 0.641085 0.764260
vn 0.070110 -0.641085 0.764261
vn -0.070110 -0.641085 0.764261
vn -0.470083 0.834327 -0.287960
vn 0.244531 0.939941 0.238150
vn 0.244531 0.939941 -0.238150
vn -0.244531 0.939941 -0.238150
vn -0.244531 0.939941 0.238150
vn -0.635893 0.435800 0.636961
vn -0.635893 0.435800 -0.636961
vn 0.635893 0.435800 0.636961
vn 0.635893 0.435800 -0.636961
vn 0.346708 -0.346528 0.871614
vn -0.253860 0.260175 0.931592
vn 0.346708 0.346528 0.871614
vn -0.253859 -0.260175 0.931592
vn -0.346708 0.346528 0.871614
vn 0.253859 -0.260175 0.931592
vn -0.346708 -0.346528 0.871614
vn 0.253860 0.260175 0.931592
vn -0.411956 0.509770 0.755266
vn -0.411956 -0.509769 0.755266
vn 0.411956 -0.509769 0.755266
vn 0.411956 0.509770 0.755266
# 84 vertex normals

vt 0.238207 0.194200 0.000000
vt 0.238207 0.009319 0.000000
vt 0.437221 0.009319 0.000000
vt 0.437221 0.194200 0.000000
vt 0.150240 0.595144 0.000000
vt 0.150240 0.859888 0.000000
vt 0.100160 0.859887 0.000000
vt 0.100160 0.595144 0.000000
vt 0.164823 0.594397 0.000000
vt 0.967659 0.594397 0.000000
vt 0.967659 0.828049 0.000000
vt 0.164823 0.828049 0.000000
vt 0.559488 0.194200 0.000000
vt 0.559488 0.009319 0.000000
vt 0.652609 0.009319 0.000000
vt 0.652609 0.194200 0.000000
vt 0.086397 0.279262 0.000000
vt 0.576433 0.279301 0.000000
vt 0.576420 0.452537 0.000000
vt 0.086383 0.452499 0.000000
vt 0.179914 0.009319 0.000000
vt 0.179914 0.194200 0.000000
vt 0.086793 0.194200 0.000000
vt 0.086793 0.009319 0.000000
vt 0.209060 0.194200 0.000000
vt 0.209060 0.009319 0.000000
vt 0.466367 0.009319 0.000000
vt 0.466367 0.194200 0.000000
vt 0.017553 0.859887 0.000000
vt 0.056114 0.859887 0.000000
vt 0.017553 0.880806 0.000000
vt 0.150240 0.574225 0.000000
vt 0.681757 0.009319 0.000000
vt 0.681757 0.194200 0.000000
vt 0.014996 0.194200 0.000000
vt 0.014996 0.009319 0.000000
vt 0.073464 0.202279 0.000000
vt 0.589375 0.202331 0.000000
vt 0.535598 0.239899 0.000000
vt 0.127238 0.239858 0.000000
vt 0.628775 0.215973 0.000000
vt 0.566143 0.249905 0.000000
vt 0.642804 0.255605 0.000000
vt 0.642789 0.476245 0.000000
vt 0.628755 0.515879 0.000000
vt 0.566120 0.482372 0.000000
vt 0.589353 0.529521 0.000000
vt 0.535579 0.491942 0.000000
vt 0.073439 0.529480 0.000000
vt 0.127218 0.491910 0.000000
vt 0.034039 0.515833 0.000000
vt 0.096679 0.482335 0.000000
vt 0.020010 0.476196 0.000000
vt 0.020028 0.255555 0.000000
vt 0.034062 0.215921 0.000000
vt 0.096698 0.249427 0.000000
vt 0.602938 0.978480 0.000000
vt 0.863529 0.978480 0.000000
vt 0.863529 0.992452 0.000000
vt 0.602938 0.992452 0.000000
vt 0.031224 0.978480 0.000000
vt 0.135692 0.978480 0.000000
vt 0.135692 0.992452 0.000000
vt 0.031224 0.992452 0.000000
vt 0.169626 0.978480 0.000000
vt 0.430265 0.978480 0.000000
vt 0.430265 0.992452 0.000000
vt 0.169626 0.992452 0.000000
vt 0.464442 0.978480 0.000000
vt 0.568960 0.978480 0.000000
vt 0.568960 0.992452 0.000000
vt 0.464442 0.992452 0.000000
vt 0.530909 0.936755 0.000000
vt 0.644406 0.936755 0.000000
vt 0.644406 0.949346 0.000000
vt 0.530909 0.949346 0.000000
vt 0.701739 0.936755 0.000000
vt 0.745520 0.936755 0.000000
vt 0.745520 0.949346 0.000000
vt 0.701739 0.949346 0.000000
vt 0.093162 0.936755 0.000000
vt 0.206921 0.936755 0.000000
vt 0.206921 0.949346 0.000000
vt 0.093162 0.949346 0.000000
vt 0.264553 0.936755 0.000000
vt 0.308556 0.936755 0.000000
vt 0.308556 0.949346 0.000000
vt 0.264553 0.949346 0.000000
vt 0.602938 0.960749 0.000000
vt 0.863529 0.960749 0.000000
vt 0.031224 0.960749 0.000000
vt 0.135692 0.960749 0.000000
vt 0.169626 0.960749 0.000000
vt 0.430265 0.960749 0.000000
vt 0.464442 0.960749 0.000000
vt 0.568960 0.960749 0.000000
vt 0.017554 0.595144 0.000000
vt 0.056114 0.595144 0.000000
vt 0.849141 0.895011 0.000000
vt 0.849141 0.921666 0.000000
vt 0.650049 0.921666 0.000000
vt 0.650049 0.895011 0.000000
vt 0.230335 0.907785 0.000000
vt 0.405115 0.907785 0.000000
vt 0.405115 0.911505 0.000000
vt 0.230335 0.911505 0.000000
vt 0.579896 0.907785 0.000000
vt 0.579896 0.911505 0.000000
vt 0.629758 0.907785 0.000000
vt 0.629758 0.911505 0.000000
vt 0.013915 0.907785 0.000000
vt 0.013915 0.911505 0.000000
vt 0.880437 0.978480 0.000000
vt 0.880437 0.992452 0.000000
vt 0.015624 0.992452 0.000000
vt 0.015624 0.978480 0.000000
vt 0.151888 0.978480 0.000000
vt 0.151888 0.992452 0.000000
vt 0.447796 0.978480 0.000000
vt 0.447796 0.992452 0.000000
vt 0.585719 0.978480 0.000000
vt 0.585719 0.992452 0.000000
vt 0.659359 0.936755 0.000000
vt 0.659359 0.949346 0.000000
vt 0.759624 0.936755 0.000000
vt 0.759624 0.949346 0.000000
vt 0.014424 0.936755 0.000000
vt 0.014424 0.949346 0.000000
vt 0.221936 0.936755 0.000000
vt 0.221936 0.949346 0.000000
vt 0.323539 0.936755 0.000000
vt 0.323539 0.949346 0.000000
vt 0.880437 0.960749 0.000000
vt 0.015624 0.960749 0.000000
vt 0.151888 0.960749 0.000000
vt 0.447796 0.960749 0.000000
vt 0.585719 0.960749 0.000000
vt 0.643748 0.928943 0.000000
vt 0.643748 0.887735 0.000000
vt 0.855441 0.887735 0.000000
vt 0.855441 0.928943 0.000000
vt 0.150240 0.880807 0.000000
vt 0.017554 0.574225 0.000000
vt 0.950940 0.869181 0.000000
vt 0.181542 0.869182 0.000000
vt 0.900784 0.882892 0.000000
vt 0.231697 0.882892 0.000000
vt 0.181542 0.553265 0.000000
vt 0.950940 0.553265 0.000000
vt 0.231697 0.539554 0.000000
vt 0.900784 0.539554 0.000000
# 151 texture coords

o AlarmClock
g AlarmClock
s 1
f -36/-151/-84 -83/-150/-83 -79/-149/-82 -33/-148/-81 
f -29/-147/-80 -32/-146/-79 -9/-145/-78 -10/-144/-77 
f -38/-143/-76 -45/-142/-75 -44/-141/-74 -39/-140/-73 
s 2
f -21/-139/-72 -80/-138/-71 -76/-137/-70 -19/-136/-69 
s 4
f -62/-135/-68 -69/-134/-67 -68/-133/-66 -63/-132/-65 
s 2
f -82/-131/-64 -28/-130/-63 -13/-129/-62 -74/-128/-61 
s 1
f -83/-150/-83 -36/-151/-84 -25/-127/-60 -84/-126/-59 
f -33/-148/-81 -79/-149/-82 -81/-125/-58 -23/-124/-57 
f -77/-123/-56 -11/-122/-55 -78/-121/-54 
f -29/-147/-80 -10/-144/-77 -15/-120/-53 
s 2
f -80/-138/-71 -21/-139/-72 -23/-124/-57 -81/-125/-58 
f -19/-136/-69 -76/-137/-70 -78/-119/-54 -17/-118/-52 
f -28/-130/-63 -82/-131/-64 -84/-126/-59 -25/-127/-60 
f -74/-128/-61 -13/-129/-62 -15/-117/-53 -75/-116/-51 
s 4
f -79/-115/-82 -83/-114/-83 -71/-113/-50 -72/-112/-49 
f -83/-114/-83 -84/-111/-59 -70/-110/-48 -71/-113/-50 
f -84/-111/-59 -82/-109/-64 -69/-134/-67 -70/-110/-48 
f -82/-109/-64 -74/-108/-61 -68/-133/-66 -69/-134/-67 
f -74/-108/-61 -75/-107/-51 -67/-106/-47 -68/-133/-66 
f -75/-107/-51 -73/-105/-46 -66/-104/-45 -67/-106/-47 
f -73/-105/-46 -77/-103/-56 -65/-102/-44 -66/-104/-45 
f -77/-103/-56 -78/-101/-54 -64/-100/-43 -65/-102/-44 
f -78/-101/-54 -76/-99/-70 -63/-132/-65 -64/-100/-43 
f -76/-99/-70 -80/-98/-71 -62/-135/-68 -63/-132/-65 
f -80/-98/-71 -81/-97/-58 -61/-96/-42 -62/-135/-68 
f -81/-97/-58 -79/-115/-82 -72/-112/-49 -61/-96/-42 
s 1
f -35/-95/-41 -34/-94/-40 -59/-93/-39 -60/-92/-38 
f -22/-91/-37 -20/-90/-36 -56/-89/-35 -57/-88/-34 
f -31/-87/-33 -30/-86/-32 -53/-85/-31 -54/-84/-30 
f -14/-83/-29 -27/-82/-28 -50/-81/-27 -51/-80/-26 
s 2
f -60/-79/-38 -59/-78/-39 -47/-77/-25 -48/-76/-24 
s 4
f -57/-75/-34 -56/-74/-35 -44/-73/-74 -45/-72/-75 
s 2
f -54/-71/-30 -53/-70/-31 -41/-69/-23 -42/-68/-22 
s 4
f -51/-67/-26 -50/-66/-27 -38/-65/-76 -39/-64/-73 
f -34/-94/-40 -35/-95/-41 -36/-63/-84 -33/-62/-81 
s 8
f -20/-90/-36 -22/-91/-37 -21/-61/-72 -19/-60/-69 
s 4
f -30/-86/-32 -31/-87/-33 -32/-59/-79 -29/-58/-80 
s 8
f -27/-82/-28 -14/-83/-29 -13/-57/-62 -28/-56/-63 
s 1
f -11/-122/-55 -77/-123/-56 -73/-55/-46 -12/-54/-21 
f -2/-53/-20 -1/-52/-19 -4/-51/-18 -3/-50/-17 
s off
f -12/-49/-21 -10/-48/-77 -7/-47/-16 -8/-46/-15 
f -10/-48/-77 -9/-45/-78 -6/-44/-14 -7/-47/-16 
f -9/-45/-78 -11/-43/-55 -5/-42/-13 -6/-44/-14 
f -11/-41/-55 -12/-49/-21 -8/-46/-15 -5/-40/-13 
s 1
f -34/-94/-40 -24/-39/-12 -58/-38/-11 -59/-93/-39 
f -22/-91/-37 -57/-88/-34 -58/-37/-11 -24/-36/-12 
f -20/-90/-36 -18/-35/-10 -55/-34/-9 -56/-89/-35 
f -31/-87/-33 -54/-84/-30 -55/-34/-9 -18/-35/-10 
f -30/-86/-32 -16/-33/-8 -52/-32/-7 -53/-85/-31 
f -14/-83/-29 -51/-80/-26 -52/-32/-7 -16/-33/-8 
f -27/-82/-28 -26/-31/-6 -49/-30/-5 -50/-81/-27 
f -35/-95/-41 -60/-92/-38 -49/-30/-5 -26/-31/-6 
s 2
f -59/-78/-39 -58/-29/-11 -46/-28/-4 -47/-77/-25 
s 4
f -58/-29/-11 -57/-75/-34 -45/-72/-75 -46/-28/-4 
f -56/-74/-35 -55/-27/-9 -43/-26/-3 -44/-73/-74 
s 2
f -55/-25/-9 -54/-71/-30 -42/-68/-22 -43/-24/-3 
f -53/-70/-31 -52/-23/-7 -40/-22/-2 -41/-69/-23 
s 4
f -52/-23/-7 -51/-67/-26 -39/-64/-73 -40/-22/-2 
f -50/-66/-27 -49/-21/-5 -37/-20/-1 -38/-65/-76 
s 2
f -49/-21/-5 -60/-79/-38 -48/-76/-24 -37/-20/-1 
s 4
f -24/-39/-12 -34/-94/-40 -33/-62/-81 -23/-19/-57 
s 8
f -22/-91/-37 -24/-36/-12 -23/-18/-57 -21/-61/-72 
f -18/-35/-10 -20/-90/-36 -19/-60/-69 -17/-17/-52 
s 4
f -31/-87/-33 -18/-35/-10 -17/-17/-52 -32/-59/-79 
f -16/-33/-8 -30/-86/-32 -29/-58/-80 -15/-16/-53 
s 8
f -14/-83/-29 -16/-33/-8 -15/-16/-53 -13/-57/-62 
f -26/-31/-6 -27/-82/-28 -28/-56/-63 -25/-15/-60 
s 4
f -35/-95/-41 -26/-31/-6 -25/-15/-60 -36/-63/-84 
s off
f -8/-14/-15 -7/-13/-16 -3/-50/-17 -4/-51/-18 
f -7/-13/-16 -6/-12/-14 -2/-53/-20 -3/-50/-17 
f -6/-12/-14 -5/-11/-13 -1/-52/-19 -2/-53/-20 
f -5/-11/-13 -8/-14/-15 -4/-51/-18 -1/-52/-19 
s 4
f -68/-133/-66 -67/-106/-47 -64/-100/-43 -63/-132/-65 
f -67/-106/-47 -66/-104/-45 -65/-102/-44 -64/-100/-43 
f -62/-135/-68 -61/-96/-42 -70/-110/-48 -69/-134/-67 
f -61/-96/-42 -72/-112/-49 -71/-113/-50 -70/-110/-48 
s 1
f -9/-145/-78 -32/-146/-79 -17/-10/-52 
f -11/-122/-55 -9/-145/-78 -17/-10/-52 -78/-121/-54 
f -10/-144/-77 -12/-54/-21 -75/-9/-51 -15/-120/-53 
f -12/-54/-21 -73/-55/-46 -75/-9/-51 
f -44/-141/-74 -43/-8/-3 -40/-7/-2 -39/-140/-73 
f -43/-8/-3 -42/-6/-22 -41/-5/-23 -40/-7/-2 
f -38/-143/-76 -37/-4/-1 -46/-3/-4 -45/-142/-75 
f -37/-4/-1 -48/-2/-24 -47/-1/-25 -46/-3/-4 
# 80 polygons - 4 triangles

