# 3ds Max Wavefront OBJ Exporter v0.99 - (c)2007 guruware
# File Created: 08.11.2025 15:55:58

#
# object Lightfixrure
#

v  -17.801479 63.005276 -70.839653
v  -18.020004 63.005283 -70.312088
v  -18.547577 63.005276 -70.093567
v  -19.075142 63.005283 -70.312088
v  -19.293671 63.005276 -70.839653
v  -19.075142 63.005276 -71.367226
v  -18.547577 63.005276 -71.585754
v  -18.020004 63.005276 -71.367226
v  -17.801479 -14.827549 -70.839661
v  -18.020004 -14.827549 -70.312088
v  -18.547577 -14.827549 -70.093567
v  -19.075142 -14.827549 -70.312088
v  -19.293671 -14.827549 -70.839661
v  -19.075142 -14.827545 -71.367226
v  -18.547577 -14.827545 -71.585754
v  -18.020004 -14.827545 -71.367226
v  -15.542133 71.557144 -67.834229
v  -15.748322 71.856018 -68.040413
v  -14.588831 71.856018 -70.839668
v  -14.297237 71.557129 -70.839668
v  -18.547577 71.557144 -66.589333
v  -21.553013 71.557144 -67.834229
v  -21.346825 71.856018 -68.040413
v  -22.797909 71.557129 -70.839668
v  -22.506317 71.856018 -70.839668
v  -21.553013 71.557129 -73.845108
v  -21.346825 71.856003 -73.638916
v  -18.547577 71.557129 -75.089996
v  -15.542135 71.557129 -73.845108
v  -15.748322 71.856003 -73.638916
v  -15.219938 63.446407 -70.839668
v  -15.579533 63.147518 -70.839668
v  -16.448853 63.147526 -68.740944
v  -16.194580 63.446407 -68.486671
v  -18.547577 63.147526 -67.871620
v  -18.547577 63.446407 -67.512024
v  -20.646294 63.147526 -68.740944
v  -20.900570 63.446407 -68.486671
v  -21.515617 63.147518 -70.839668
v  -21.875210 63.446407 -70.839668
v  -20.646294 63.147518 -72.938393
v  -20.900570 63.446400 -73.192665
v  -18.547577 63.147518 -73.807701
v  -18.547577 63.446400 -74.167297
v  -16.448853 63.147518 -72.938393
v  -16.194580 63.446400 -73.192665
v  -18.547577 71.856018 -66.880928
v  -18.547577 71.856003 -74.798409
# 48 vertices

vn 0.955256 0.295781 -0.000001
vn 0.675467 0.295786 0.675466
vn 0.634691 -0.440835 0.634690
vn 0.897591 -0.440830 0.000000
vn -0.000000 0.295789 0.955253
vn -0.000000 -0.440835 0.897588
vn -0.675468 0.295786 0.675466
vn -0.634692 -0.440836 0.634689
vn -0.955256 0.295780 -0.000000
vn -0.897591 -0.440828 0.000000
vn -0.675465 0.295790 -0.675467
vn -0.634690 -0.440836 -0.634691
vn -0.000000 0.295784 -0.955255
vn -0.000000 -0.440835 -0.897588
vn 0.675465 0.295789 -0.675467
vn 0.634690 -0.440834 -0.634692
vn 0.432399 -0.901682 0.000001
vn 0.305747 -0.901686 0.305748
vn 0.443462 -0.778917 0.443430
vn 0.627168 -0.778884 0.000007
vn -0.000000 -0.901685 0.432393
vn -0.000002 -0.778819 0.627249
vn -0.305745 -0.901687 0.305747
vn -0.443417 -0.778947 0.443422
vn -0.432401 -0.901681 0.000001
vn -0.627205 -0.778855 0.000033
vn -0.305745 -0.901686 -0.305748
vn -0.443485 -0.778853 -0.443520
vn -0.000000 -0.901686 -0.432391
vn 0.000025 -0.778916 -0.627128
vn 0.305747 -0.901685 -0.305749
vn 0.443475 -0.778885 -0.443473
vn 0.707072 -0.000000 0.707141
vn 1.000000 0.000000 -0.000003
vn -0.000003 -0.000000 1.000000
vn -0.707072 -0.000000 0.707142
vn -1.000000 -0.000000 0.000043
vn -0.707171 0.000000 -0.707042
vn -0.000048 0.000000 -1.000000
vn 0.707107 0.000000 -0.707106
vn -0.715791 0.698315 -0.000002
vn -0.506131 0.698330 -0.506129
vn 0.506132 0.698329 -0.506130
vn 0.715789 0.698317 -0.000002
vn -0.506134 0.698323 0.506136
vn 0.506133 0.698323 0.506136
vn -0.000000 0.698328 0.715778
vn -0.000000 0.698319 -0.715786
# 48 vertex normals

vt 0.966187 0.016196 0.000000
vt 0.966187 0.109077 0.000000
vt 0.689064 0.109077 0.000000
vt 0.689064 0.016196 0.000000
vt 0.966187 0.204463 0.000000
vt 0.689064 0.204463 0.000000
vt 0.966187 0.301019 0.000000
vt 0.689064 0.301019 0.000000
vt 0.966187 0.398095 0.000000
vt 0.689064 0.398095 0.000000
vt 0.966187 0.495172 0.000000
vt 0.689064 0.495172 0.000000
vt 0.966187 0.591730 0.000000
vt 0.689064 0.591730 0.000000
vt 0.966187 0.687119 0.000000
vt 0.689064 0.687119 0.000000
vt 0.966187 0.780005 0.000000
vt 0.689064 0.780005 0.000000
vt 0.076109 0.018315 0.000000
vt 0.148127 0.018315 0.000000
vt 0.148127 0.136839 0.000000
vt 0.076109 0.136839 0.000000
vt 0.221943 0.018315 0.000000
vt 0.221943 0.136839 0.000000
vt 0.299736 0.018315 0.000000
vt 0.299736 0.136839 0.000000
vt 0.381365 0.018315 0.000000
vt 0.381365 0.136839 0.000000
vt 0.464901 0.018315 0.000000
vt 0.464901 0.136839 0.000000
vt 0.547092 0.018315 0.000000
vt 0.547092 0.136839 0.000000
vt 0.625844 0.018315 0.000000
vt 0.625844 0.136839 0.000000
vt 0.657365 0.018315 0.000000
vt 0.657365 0.136839 0.000000
vt 0.066682 0.979463 0.000000
vt 0.059422 0.979463 0.000000
vt 0.059422 0.014886 0.000000
vt 0.066682 0.014886 0.000000
vt 0.052246 0.979463 0.000000
vt 0.052246 0.014886 0.000000
vt 0.044986 0.979463 0.000000
vt 0.044986 0.014886 0.000000
vt 0.037670 0.979463 0.000000
vt 0.037670 0.014886 0.000000
vt 0.030334 0.979463 0.000000
vt 0.030334 0.014886 0.000000
vt 0.023019 0.979463 0.000000
vt 0.023019 0.014886 0.000000
vt 0.015759 0.979463 0.000000
vt 0.015759 0.014886 0.000000
vt 0.008599 0.979463 0.000000
vt 0.008599 0.014886 0.000000
vt 0.980064 0.398095 0.000000
vt 0.980064 0.495172 0.000000
vt 0.980064 0.687119 0.000000
vt 0.980064 0.780005 0.000000
vt 0.674025 0.109077 0.000000
vt 0.674025 0.016196 0.000000
vt 0.674025 0.204463 0.000000
vt 0.674025 0.301019 0.000000
vt 0.674025 0.398095 0.000000
vt 0.674025 0.495172 0.000000
vt 0.674025 0.591730 0.000000
vt 0.674025 0.687119 0.000000
vt 0.674025 0.780005 0.000000
vt 0.980064 0.301019 0.000000
vt 0.980064 0.016196 0.000000
vt 0.980064 0.109077 0.000000
vt 0.980064 0.204463 0.000000
vt 0.980064 0.591730 0.000000
# 72 texture coords

o Lightfixrure
g Lightfixrure
s 1
f -29/-72/-48 -32/-71/-47 -15/-70/-46 -18/-69/-45 
s 2
f -32/-71/-47 -28/-68/-44 -13/-67/-43 -15/-70/-46 
s 1
f -28/-68/-44 -27/-66/-42 -11/-65/-41 -13/-67/-43 
s 2
f -27/-66/-42 -25/-64/-40 -9/-63/-39 -11/-65/-41 
s 1
f -25/-64/-40 -23/-62/-38 -7/-61/-37 -9/-63/-39 
s 2
f -23/-62/-38 -21/-60/-36 -5/-59/-35 -7/-61/-37 
s 1
f -21/-60/-36 -20/-58/-34 -3/-57/-33 -5/-59/-35 
s 2
f -20/-58/-34 -29/-56/-48 -18/-55/-45 -3/-57/-33 
s 1
f -17/-54/-32 -16/-53/-31 -47/-52/-30 -48/-51/-29 
f -16/-53/-31 -14/-50/-28 -46/-49/-27 -47/-52/-30 
f -14/-50/-28 -12/-48/-26 -45/-47/-25 -46/-49/-27 
f -12/-48/-26 -10/-46/-24 -44/-45/-23 -45/-47/-25 
f -10/-46/-24 -8/-44/-22 -43/-43/-21 -44/-45/-23 
f -8/-44/-22 -6/-42/-20 -42/-41/-19 -43/-43/-21 
f -6/-42/-20 -4/-40/-18 -41/-39/-17 -42/-41/-19 
f -4/-40/-18 -17/-38/-32 -48/-37/-29 -41/-39/-17 
s 2
f -48/-36/-29 -47/-35/-30 -39/-34/-16 -40/-33/-15 
s 4
f -47/-35/-30 -46/-32/-27 -38/-31/-14 -39/-34/-16 
s 2
f -46/-32/-27 -45/-30/-25 -37/-29/-13 -38/-31/-14 
s 4
f -45/-30/-25 -44/-28/-23 -36/-27/-12 -37/-29/-13 
s 2
f -44/-28/-23 -43/-26/-21 -35/-25/-11 -36/-27/-12 
s 4
f -43/-26/-21 -42/-24/-19 -34/-23/-10 -35/-25/-11 
s 2
f -42/-24/-19 -41/-22/-17 -33/-21/-9 -34/-23/-10 
s 4
f -41/-22/-17 -48/-20/-29 -40/-19/-15 -33/-21/-9 
f -24/-18/-8 -22/-17/-7 -23/-62/-38 -25/-64/-40 
f -19/-16/-6 -30/-15/-5 -29/-56/-48 -20/-58/-34 
f -16/-14/-31 -17/-13/-32 -18/-69/-45 -15/-70/-46 
f -14/-12/-28 -16/-14/-31 -15/-70/-46 -13/-67/-43 
f -12/-11/-26 -14/-12/-28 -13/-67/-43 -11/-65/-41 
f -10/-10/-24 -12/-11/-26 -11/-65/-41 -9/-63/-39 
f -8/-9/-22 -10/-10/-24 -9/-63/-39 -7/-61/-37 
f -6/-8/-20 -8/-9/-22 -7/-61/-37 -5/-59/-35 
f -4/-7/-18 -6/-8/-20 -5/-59/-35 -3/-57/-33 
f -17/-6/-32 -4/-7/-18 -3/-57/-33 -18/-55/-45 
s 8
f -26/-5/-4 -24/-18/-8 -25/-64/-40 -27/-66/-42 
f -30/-4/-5 -31/-3/-3 -32/-71/-47 -29/-72/-48 
s 4
f -2/-2/-2 -26/-5/-4 -27/-66/-42 -28/-68/-44 
s 16
f -31/-3/-3 -2/-2/-2 -28/-68/-44 -32/-71/-47 
s 8
f -1/-1/-1 -19/-16/-6 -20/-58/-34 -21/-60/-36 
s 16
f -22/-17/-7 -1/-1/-1 -21/-60/-36 -23/-62/-38 
# 40 polygons

