# 3ds Max Wavefront OBJ Exporter v0.99 - (c)2007 guruware
# File Created: 08.11.2025 15:09:53

#
# object Mouse
#

v  34.820343 46.218735 10.452728
v  37.757484 46.218735 10.452728
v  34.820343 46.218735 6.392228
v  37.757484 46.218735 6.392228
v  38.271484 45.138550 11.163315
v  34.306343 45.138550 11.163315
v  38.271484 45.138550 5.681640
v  34.306343 45.138550 5.681640
v  38.271484 44.134888 11.163315
v  34.306343 44.134888 11.163315
v  38.271484 44.134888 5.681640
v  34.306343 44.134888 5.681640
v  34.435181 46.484249 8.422478
v  34.590221 46.371700 9.631281
v  34.590221 46.371700 7.213675
v  38.142647 46.484249 8.422478
v  37.987606 46.371700 7.213675
v  37.987606 46.371700 9.631281
v  38.816811 45.138550 8.422478
v  38.666344 45.138550 7.190683
v  38.666344 45.138550 9.654273
v  33.761017 45.138550 8.422478
v  33.911484 45.138550 9.654273
v  33.911484 45.138550 7.190683
v  38.816811 44.134888 8.422478
v  38.666344 44.134888 9.654273
v  38.666344 44.134888 7.190682
v  33.761017 44.134888 8.422478
v  33.911484 44.134888 7.190682
v  33.911484 44.134888 9.654273
v  36.771870 46.472469 10.929631
v  35.805958 46.472469 10.929631
v  35.760456 46.707481 9.652923
v  36.817371 46.707481 9.652922
v  35.805958 46.472469 5.915324
v  36.771870 46.472469 5.915324
v  36.859085 46.659969 6.989693
v  35.718742 46.659969 6.989695
v  36.789097 45.138550 11.846432
v  35.788731 45.138550 11.846432
v  35.788731 45.138550 4.998523
v  36.789097 45.138550 4.998523
v  35.788731 44.134888 11.846432
v  36.789097 44.134888 11.846432
v  36.789097 44.134888 4.998524
v  35.788731 44.134888 4.998524
v  35.714642 46.823708 8.624894
v  36.863186 46.823708 8.624893
v  36.563347 46.809074 8.478773
v  36.561314 46.674599 7.135814
v  36.016514 46.674599 7.135815
v  36.014481 46.809074 8.478774
v  36.563347 46.980724 8.478773
v  36.561314 46.865612 7.135814
v  36.016514 46.865612 7.135815
v  36.014481 46.980724 8.478774
v  33.795597 44.134888 7.803844
v  33.795597 45.138550 7.803845
v  34.470699 46.456726 7.813807
v  35.714127 46.775291 7.805111
v  35.956821 46.741837 7.807295
v  36.015499 47.223682 7.807294
v  36.562328 47.223682 7.807293
v  36.621006 46.741837 7.807293
v  36.863701 46.775291 7.805110
v  38.107128 46.456726 7.813807
v  38.782230 45.138550 7.803845
v  38.782230 44.134888 7.803844
# 68 vertices

vn -0.199958 0.282220 0.938279
vn -0.721744 0.304263 0.621699
vn -0.766481 -0.000000 0.642267
vn -0.214235 -0.000000 0.976782
vn 0.721744 0.304263 0.621699
vn 0.199958 0.282220 0.938279
vn 0.214235 -0.000000 0.976782
vn 0.766481 -0.000000 0.642267
vn 0.952766 0.244194 0.180573
vn 0.982241 0.000000 0.187626
vn 0.721744 0.304263 -0.621699
vn 0.946245 0.244247 -0.212047
vn 0.975600 0.000000 -0.219556
vn 0.766481 -0.000000 -0.642267
vn 0.199958 0.282220 -0.938279
vn 0.214235 -0.000000 -0.976782
vn -0.721744 0.304263 -0.621699
vn -0.199958 0.282220 -0.938279
vn -0.214235 -0.000000 -0.976782
vn -0.766481 -0.000000 -0.642267
vn -0.946245 0.244247 -0.212047
vn -0.975600 0.000000 -0.219556
vn -0.952766 0.244194 0.180573
vn -0.982241 0.000000 0.187626
vn 0.999461 0.000000 0.032839
vn 0.973336 0.227193 0.031622
vn 0.965858 0.231223 -0.116853
vn 0.992650 0.000000 -0.121018
vn -0.992650 0.000000 -0.121018
vn -0.965858 0.231223 -0.116853
vn -0.973336 0.227193 0.031622
vn -0.999461 0.000000 0.032839
vn -0.138128 0.978912 0.150507
vn -0.213020 0.807216 0.550476
vn 0.213020 0.807216 0.550476
vn 0.138127 0.978912 0.150507
vn 0.138169 0.977578 -0.158903
vn 0.210960 0.808484 -0.549409
vn -0.210960 0.808484 -0.549409
vn -0.138169 0.977578 -0.158903
vn -0.129644 0.991086 0.030667
vn 0.129644 0.991086 0.030667
vn 0.598366 0.460403 0.655734
vn 0.588119 0.806741 -0.057314
vn -0.588127 0.806736 -0.057309
vn -0.598365 0.460402 0.655736
vn 0.056600 0.993450 -0.099265
vn 0.583702 0.807464 -0.085406
vn 0.329308 0.911103 0.247888
vn -0.277013 0.869660 -0.408601
vn 0.277012 0.869660 -0.408602
vn -0.056603 0.993450 -0.099265
vn -0.583705 0.807462 -0.085406
vn -0.329307 0.911103 0.247888
vn -0.547735 0.731142 0.406716
vn -0.610764 0.759349 0.224404
vn 0.547735 0.731142 0.406716
vn 0.610764 0.759349 0.224404
vn 0.547735 0.731142 -0.406716
vn 0.605111 0.751403 -0.263123
vn -0.547735 0.731142 -0.406716
vn -0.605111 0.751403 -0.263123
vn -0.637294 0.769838 0.034732
vn 0.637294 0.769838 0.034732
vn 0.621145 0.769646 -0.147729
vn -0.621145 0.769646 -0.147729
vn -0.607030 0.408653 -0.681555
vn 0.607035 0.408647 -0.681555
# 68 vertex normals

vt 0.088861 0.430986 0.000000
vt 0.088861 0.509443 0.000000
vt 0.027428 0.509443 0.000000
vt 0.027428 0.430986 0.000000
vt 0.088861 0.295546 0.000000
vt 0.088861 0.356408 0.000000
vt 0.027428 0.356408 0.000000
vt 0.027428 0.295546 0.000000
vt 0.088861 0.225778 0.000000
vt 0.027428 0.225778 0.000000
vt 0.088861 0.014080 0.000000
vt 0.088861 0.068011 0.000000
vt 0.027428 0.068011 0.000000
vt 0.027428 0.014080 0.000000
vt 0.088861 0.919001 0.000000
vt 0.088861 0.980540 0.000000
vt 0.027428 0.980540 0.000000
vt 0.027428 0.919001 0.000000
vt 0.088861 0.785259 0.000000
vt 0.088861 0.846746 0.000000
vt 0.027428 0.846746 0.000000
vt 0.027428 0.785259 0.000000
vt 0.088861 0.713266 0.000000
vt 0.027428 0.713266 0.000000
vt 0.088861 0.567457 0.000000
vt 0.027428 0.567457 0.000000
vt 0.027428 0.150183 0.000000
vt 0.088861 0.150183 0.000000
vt 0.088861 0.101009 0.000000
vt 0.027428 0.101009 0.000000
vt 0.027428 0.651880 0.000000
vt 0.088861 0.651880 0.000000
vt 0.088861 0.617786 0.000000
vt 0.027428 0.617786 0.000000
vt 0.772240 0.778489 0.000000
vt 0.765576 0.966418 0.000000
vt 0.621047 0.966994 0.000000
vt 0.619719 0.778821 0.000000
vt 0.616131 0.392375 0.000000
vt 0.628366 0.234605 0.000000
vt 0.770492 0.234741 0.000000
vt 0.781266 0.392385 0.000000
vt 0.163427 0.356408 0.000000
vt 0.163427 0.430986 0.000000
vt 0.163427 0.846746 0.000000
vt 0.163427 0.919001 0.000000
vt 0.779886 0.629488 0.000000
vt 0.615288 0.629032 0.000000
vt 0.194669 0.940054 0.000000
vt 0.195029 0.687931 0.000000
vt 0.388100 0.687931 0.000000
vt 0.388459 0.940055 0.000000
vt 0.615114 0.510702 0.000000
vt 0.650398 0.510861 0.000000
vt 0.658080 0.608297 0.000000
vt 0.737512 0.413640 0.000000
vt 0.659265 0.413528 0.000000
vt 0.780479 0.511182 0.000000
vt 0.745601 0.511149 0.000000
vt 0.737339 0.608473 0.000000
vt 0.917094 0.904061 0.000000
vt 0.948621 0.781551 0.000000
vt 0.470217 0.897669 0.000000
vt 0.443894 0.775130 0.000000
vt 0.477209 0.297101 0.000000
vt 0.446101 0.419439 0.000000
vt 0.921368 0.299703 0.000000
vt 0.950907 0.423027 0.000000
vt 0.163427 0.295546 0.000000
vt 0.163427 0.509443 0.000000
vt 0.163427 0.014080 0.000000
vt 0.163427 0.068011 0.000000
vt 0.163427 0.225778 0.000000
vt 0.163427 0.785259 0.000000
vt 0.163427 0.980540 0.000000
vt 0.163427 0.567457 0.000000
vt 0.163427 0.713266 0.000000
vt 0.971158 0.602952 0.000000
vt 0.424979 0.599138 0.000000
vt 0.429184 0.509491 0.000000
vt 0.966016 0.512756 0.000000
vt 0.163427 0.101009 0.000000
vt 0.163427 0.150183 0.000000
vt 0.163427 0.617786 0.000000
vt 0.163427 0.651880 0.000000
vt 0.179479 0.022753 0.000000
vt 0.287376 0.022753 0.000000
vt 0.287376 0.049310 0.000000
vt 0.179479 0.049310 0.000000
vt 0.388422 0.022753 0.000000
vt 0.483750 0.022753 0.000000
vt 0.483750 0.049310 0.000000
vt 0.388422 0.049310 0.000000
vt 0.595477 0.022753 0.000000
vt 0.595477 0.049310 0.000000
vt 0.693309 0.022753 0.000000
vt 0.778582 0.022753 0.000000
vt 0.778582 0.049310 0.000000
vt 0.693309 0.049310 0.000000
vt 0.195388 0.419247 0.000000
vt 0.387741 0.419247 0.000000
# 101 texture coords

o Mouse
g Mouse
s 1
f -29/-101/-68 -63/-100/-67 -59/-99/-66 -26/-98/-65 
f -64/-97/-64 -30/-96/-63 -25/-95/-62 -60/-94/-61 
s 4
f -48/-93/-60 -64/-97/-64 -60/-94/-61 -43/-92/-59 
f -62/-91/-58 -49/-90/-57 -42/-89/-56 -58/-88/-55 
s 1
f -27/-87/-54 -62/-86/-58 -58/-85/-55 -24/-84/-53 
f -61/-83/-52 -28/-82/-51 -23/-81/-50 -57/-80/-49 
s 4
f -45/-79/-48 -61/-83/-52 -57/-80/-49 -40/-78/-47 
f -63/-100/-67 -46/-77/-46 -39/-76/-45 -59/-99/-66 
f -48/-93/-60 -43/-92/-59 -44/-75/-44 -50/-74/-43 
f -42/-89/-56 -49/-90/-57 -2/-73/-42 -1/-72/-41 
f -45/-79/-48 -40/-78/-47 -12/-71/-40 -11/-70/-39 
f -39/-76/-45 -46/-77/-46 -47/-69/-38 -41/-68/-37 
s 1
f -36/-67/-36 -37/-66/-35 -38/-65/-34 -35/-64/-33 
f -32/-63/-32 -33/-62/-31 -34/-61/-30 -31/-60/-29 
s 2
f -30/-96/-63 -38/-59/-34 -37/-58/-35 -29/-101/-68 
f -28/-82/-51 -34/-57/-30 -33/-56/-31 -27/-87/-54 
s 1
f -29/-101/-68 -26/-98/-65 -25/-95/-62 -30/-96/-63 
f -27/-87/-54 -24/-84/-53 -23/-81/-50 -28/-82/-51 
f -22/-55/-28 -36/-67/-36 -35/-64/-33 -21/-54/-27 
f -16/-53/-26 -6/-52/-25 -7/-51/-24 -13/-50/-23 
s off
f -21/-54/-27 -4/-49/-22 -5/-48/-21 -20/-47/-20 
f -32/-63/-32 -31/-60/-29 -18/-46/-19 -19/-45/-18 
f -31/-60/-29 -9/-44/-17 -8/-43/-16 -18/-46/-19 
f -22/-55/-28 -21/-54/-27 -20/-47/-20 -17/-42/-15 
s 1
f -68/-41/-14 -37/-66/-35 -36/-67/-36 -55/-40/-13 
f -67/-39/-12 -51/-38/-11 -35/-64/-33 -38/-65/-34 
f -65/-37/-10 -33/-62/-31 -32/-63/-32 -52/-36/-9 
f -66/-35/-8 -54/-34/-7 -31/-60/-29 -34/-61/-30 
s 2
f -38/-59/-34 -30/-96/-63 -64/-97/-64 -67/-33/-12 
f -68/-32/-14 -63/-100/-67 -29/-101/-68 -37/-58/-35 
s 4
f -65/-31/-10 -52/-30/-9 -49/-90/-57 -62/-91/-58 
f -67/-33/-12 -64/-97/-64 -48/-93/-60 -51/-29/-11 
s 2
f -34/-57/-30 -28/-82/-51 -61/-83/-52 -66/-28/-8 
f -65/-27/-10 -62/-86/-58 -27/-87/-54 -33/-56/-31 
s 4
f -68/-32/-14 -55/-26/-13 -46/-77/-46 -63/-100/-67 
f -66/-28/-8 -61/-83/-52 -45/-79/-48 -54/-25/-7 
s 1
f -55/-40/-13 -36/-67/-36 -22/-55/-28 -56/-24/-6 
f -51/-38/-11 -53/-23/-5 -21/-54/-27 -35/-64/-33 
f -52/-36/-9 -32/-63/-32 -4/-49/-22 -3/-22/-4 
f -54/-34/-7 -10/-21/-3 -9/-44/-17 -31/-60/-29 
s 4
f -49/-90/-57 -52/-30/-9 -3/-20/-4 -2/-73/-42 
f -51/-29/-11 -48/-93/-60 -50/-74/-43 -53/-19/-5 
f -46/-77/-46 -55/-26/-13 -56/-18/-6 -47/-69/-38 
f -54/-25/-7 -45/-79/-48 -11/-70/-39 -10/-17/-3 
s off
f -20/-16/-20 -5/-15/-21 -6/-14/-25 -16/-13/-26 
f -19/-12/-18 -18/-11/-19 -14/-10/-2 -15/-9/-1 
f -18/-11/-19 -8/-8/-16 -7/-7/-24 -14/-10/-2 
f -17/-6/-15 -20/-5/-20 -16/-4/-26 -13/-3/-23 
s 4
f -2/-73/-42 -50/-74/-43 -44/-75/-44 -1/-72/-41 
f -12/-71/-40 -41/-68/-37 -47/-69/-38 -11/-70/-39 
s 1
f -6/-52/-25 -15/-2/-1 -14/-1/-2 -7/-51/-24 
s off
f -4/-49/-22 -32/-63/-32 -19/-45/-18 -5/-48/-21 
f -9/-44/-17 -22/-55/-28 -17/-42/-15 -8/-43/-16 
s 1
f -4/-49/-22 -21/-54/-27 -53/-23/-5 -3/-22/-4 
f -10/-21/-3 -56/-24/-6 -22/-55/-28 -9/-44/-17 
s 4
f -3/-20/-4 -53/-19/-5 -50/-74/-43 -2/-73/-42 
f -11/-70/-39 -47/-69/-38 -56/-18/-6 -10/-17/-3 
s off
f -5/-15/-21 -19/-12/-18 -15/-9/-1 -6/-14/-25 
f -8/-8/-16 -17/-6/-15 -13/-3/-23 -7/-7/-24 
# 59 polygons

