# 3ds Max Wavefront OBJ Exporter v0.99 - (c)2007 guruware
# File Created: 08.11.2025 15:13:28

#
# object Eraser
#

v  88.831146 85.918579 -6.469659
v  89.278931 85.918579 -7.273047
v  87.487785 85.918579 -6.201865
v  88.831146 89.428612 -6.469660
v  87.487785 89.428612 -6.201865
v  89.278931 89.428612 -7.273047
v  68.732986 89.428612 -6.469660
v  68.285202 89.428612 -7.273047
v  70.076347 89.428612 -6.201865
v  68.732986 85.918579 -6.469659
v  70.076347 85.918579 -6.201865
v  68.285202 85.918579 -7.273047
v  88.831146 85.918579 -17.481268
v  87.487785 85.918579 -17.749063
v  89.278931 85.918579 -16.677879
v  88.831146 89.428612 -17.481268
v  89.278931 89.428612 -16.677879
v  87.487785 89.428612 -17.749063
v  68.732986 85.918579 -17.481268
v  68.285202 85.918579 -16.677879
v  70.076347 85.918579 -17.749063
v  68.732986 89.428612 -17.481268
v  70.076347 89.428612 -17.749063
v  68.285202 89.428612 -16.677879
v  69.034157 89.428612 -8.211598
v  69.449997 89.428612 -7.568558
v  70.697502 89.428612 -7.354212
v  86.866631 89.428612 -7.354212
v  88.114136 89.428612 -7.568558
v  88.529976 89.428612 -8.211598
v  88.529976 89.428612 -15.739329
v  88.114136 89.428612 -16.382370
v  86.866631 89.428612 -16.596716
v  70.697502 89.428612 -16.596716
v  69.449997 89.428612 -16.382370
v  69.034157 89.428612 -15.739329
v  69.309113 88.992714 -8.317762
v  69.713211 88.992714 -7.692860
v  70.925537 88.992714 -7.484560
v  86.638596 88.992714 -7.484560
v  87.850922 88.992714 -7.692860
v  88.255020 88.992714 -8.317762
v  88.255020 88.992714 -15.633165
v  87.850922 88.992714 -16.258068
v  86.638596 88.992714 -16.466368
v  70.925537 88.992714 -16.466368
v  69.713211 88.992714 -16.258068
v  69.309113 88.992714 -15.633165
v  70.404510 85.918587 -6.416978
v  69.111786 85.918587 -6.674794
v  68.680878 85.918587 -7.448250
v  68.680878 85.918587 -16.502678
v  69.111786 85.918587 -17.276134
v  70.404510 85.918587 -17.533951
v  87.159622 85.918587 -17.533951
v  88.452347 85.918587 -17.276134
v  88.883255 85.918587 -16.502678
v  88.883255 85.918587 -7.448250
v  88.452347 85.918587 -6.674794
v  87.159622 85.918587 -6.416978
v  70.404503 83.985741 -6.416978
v  69.111786 83.985741 -6.674793
v  68.680878 83.985741 -7.448250
v  68.680878 83.985741 -16.502678
v  69.111786 83.985741 -17.276134
v  70.404503 83.985741 -17.533951
v  87.159630 83.985741 -17.533951
v  88.452347 83.985741 -17.276134
v  88.883255 83.985741 -16.502678
v  88.883255 83.985741 -7.448250
v  88.452347 83.985741 -6.674793
v  87.159630 83.985741 -6.416978
# 72 vertices

vn -0.118562 -0.672754 0.730304
vn -0.118562 -0.672754 -0.730304
vn 0.118562 -0.672754 -0.730304
vn 0.118562 -0.672754 0.730304
vn 0.593479 0.798726 -0.099091
vn -0.593479 0.798726 -0.099091
vn -0.593479 0.798726 0.099091
vn 0.593479 0.798726 0.099091
vn -0.118511 -0.672769 0.730300
vn 0.118511 -0.672769 0.730300
vn 0.118511 0.672768 0.730300
vn -0.118511 0.672768 0.730300
vn 0.730300 -0.672768 0.118511
vn 0.730300 -0.672768 -0.118511
vn 0.730301 0.672767 -0.118512
vn 0.730301 0.672767 0.118512
vn 0.118511 -0.672769 -0.730300
vn -0.118511 -0.672769 -0.730300
vn -0.118511 0.672768 -0.730300
vn 0.118511 0.672768 -0.730300
vn -0.730300 -0.672768 -0.118511
vn -0.730300 -0.672768 0.118511
vn -0.730301 0.672767 0.118512
vn -0.730301 0.672767 -0.118512
vn 0.555386 -0.618944 0.555387
vn 0.555387 0.618944 0.555387
vn -0.555387 0.618944 0.555387
vn -0.555386 -0.618944 0.555387
vn 0.555386 -0.618944 -0.555387
vn 0.555387 0.618944 -0.555387
vn -0.555386 -0.618944 -0.555387
vn -0.555387 0.618944 -0.555387
vn 0.283870 0.910526 -0.300601
vn 0.498978 0.860613 -0.101813
vn 0.087505 0.837103 -0.540001
vn -0.087505 0.837103 -0.540001
vn -0.283870 0.910526 -0.300601
vn -0.498978 0.860613 -0.101813
vn -0.498978 0.860613 0.101813
vn -0.283870 0.910526 0.300601
vn -0.087505 0.837103 0.540001
vn 0.087505 0.837103 0.540001
vn 0.283870 0.910526 0.300601
vn 0.498978 0.860613 0.101813
vn 0.420802 0.768845 -0.481459
vn 0.072564 0.784803 -0.615483
vn -0.072564 0.784803 -0.615483
vn -0.420802 0.768845 -0.481459
vn -0.420802 0.768845 0.481459
vn -0.072564 0.784803 0.615483
vn 0.072564 0.784803 0.615483
vn 0.420802 0.768845 0.481459
vn -0.401877 -0.822825 0.401812
vn -0.106875 -0.745055 0.658385
vn -0.658475 -0.744985 0.106810
vn -0.658475 -0.744985 -0.106810
vn -0.401877 -0.822825 -0.401812
vn -0.106875 -0.745055 -0.658385
vn 0.106875 -0.745055 -0.658385
vn 0.401877 -0.822825 -0.401812
vn 0.658475 -0.744985 -0.106810
vn 0.658475 -0.744985 0.106810
vn 0.401877 -0.822825 0.401812
vn 0.106875 -0.745055 0.658385
vn -0.555462 -0.618943 0.555311
vn -0.730296 -0.672782 0.118459
vn -0.730296 -0.672782 -0.118459
vn -0.555462 -0.618943 -0.555311
vn 0.555462 -0.618943 -0.555311
vn 0.730296 -0.672782 -0.118459
vn 0.730296 -0.672782 0.118459
vn 0.555462 -0.618943 0.555311
# 72 vertex normals

vt 0.067796 0.878667 0.000000
vt 0.067796 0.717071 0.000000
vt 0.339967 0.717071 0.000000
vt 0.339967 0.878667 0.000000
vt 0.038966 0.072151 0.000000
vt 0.855683 0.072151 0.000000
vt 0.855684 0.403458 0.000000
vt 0.038966 0.403458 0.000000
vt 0.115642 0.907327 0.000000
vt 0.290474 0.907327 0.000000
vt 0.290474 0.967688 0.000000
vt 0.115642 0.967688 0.000000
vt 0.318928 0.907327 0.000000
vt 0.476845 0.907327 0.000000
vt 0.476845 0.967688 0.000000
vt 0.318928 0.967688 0.000000
vt 0.505298 0.907327 0.000000
vt 0.680130 0.907327 0.000000
vt 0.680130 0.967688 0.000000
vt 0.505298 0.967688 0.000000
vt 0.708558 0.907327 0.000000
vt 0.866458 0.907327 0.000000
vt 0.866458 0.967688 0.000000
vt 0.708558 0.967688 0.000000
vt 0.304699 0.907327 0.000000
vt 0.304699 0.967688 0.000000
vt 0.894888 0.907327 0.000000
vt 0.894888 0.967688 0.000000
vt 0.880671 0.967688 0.000000
vt 0.880671 0.907327 0.000000
vt 0.491073 0.907327 0.000000
vt 0.491073 0.967688 0.000000
vt 0.694346 0.907327 0.000000
vt 0.694346 0.967688 0.000000
vt 0.895849 0.061389 0.000000
vt 0.895849 0.048987 0.000000
vt 0.915583 0.048987 0.000000
vt 0.915583 0.061389 0.000000
vt 0.895849 0.035501 0.000000
vt 0.915583 0.035501 0.000000
vt 0.895849 0.748177 0.000000
vt 0.895849 0.588458 0.000000
vt 0.915583 0.588458 0.000000
vt 0.915583 0.748177 0.000000
vt 0.895849 0.496110 0.000000
vt 0.915583 0.496110 0.000000
vt 0.895849 0.483840 0.000000
vt 0.915583 0.483840 0.000000
vt 0.895849 0.414868 0.000000
vt 0.915583 0.414868 0.000000
vt 0.895849 0.332341 0.000000
vt 0.915583 0.332341 0.000000
vt 0.895849 0.317909 0.000000
vt 0.915583 0.317909 0.000000
vt 0.895849 0.231990 0.000000
vt 0.915583 0.231990 0.000000
vt 0.895849 0.140845 0.000000
vt 0.915583 0.140845 0.000000
vt 0.895849 0.128967 0.000000
vt 0.915583 0.128967 0.000000
vt 0.876971 0.971655 0.000000
vt 0.888921 0.971655 0.000000
vt 0.888921 0.979724 0.000000
vt 0.876971 0.979724 0.000000
vt 0.901758 0.971655 0.000000
vt 0.901758 0.979724 0.000000
vt 0.234018 0.971655 0.000000
vt 0.344198 0.971655 0.000000
vt 0.344198 0.979724 0.000000
vt 0.234018 0.979724 0.000000
vt 0.356146 0.971655 0.000000
vt 0.356146 0.979724 0.000000
vt 0.422642 0.971655 0.000000
vt 0.422642 0.979724 0.000000
vt 0.490743 0.971655 0.000000
vt 0.490743 0.979724 0.000000
vt 0.502691 0.971655 0.000000
vt 0.502691 0.979724 0.000000
vt 0.587416 0.971655 0.000000
vt 0.587416 0.979724 0.000000
vt 0.674288 0.971655 0.000000
vt 0.674288 0.979724 0.000000
vt 0.686473 0.971655 0.000000
vt 0.686473 0.979724 0.000000
vt 0.753240 0.971655 0.000000
vt 0.753240 0.979724 0.000000
vt 0.967726 0.812748 0.000000
vt 0.967726 0.748949 0.000000
vt 0.972634 0.748949 0.000000
vt 0.972634 0.812748 0.000000
vt 0.967726 0.735243 0.000000
vt 0.972634 0.735243 0.000000
vt 0.967726 0.649416 0.000000
vt 0.972634 0.649416 0.000000
vt 0.967726 0.565832 0.000000
vt 0.972634 0.565832 0.000000
vt 0.967726 0.551747 0.000000
vt 0.972634 0.551747 0.000000
vt 0.967726 0.457167 0.000000
vt 0.972634 0.457167 0.000000
vt 0.967726 0.365334 0.000000
vt 0.972634 0.365334 0.000000
vt 0.967726 0.351142 0.000000
vt 0.972634 0.351142 0.000000
vt 0.967726 0.264859 0.000000
vt 0.972634 0.264859 0.000000
vt 0.967726 0.181144 0.000000
vt 0.972634 0.181144 0.000000
vt 0.967726 0.166955 0.000000
vt 0.972634 0.166955 0.000000
vt 0.967726 0.047155 0.000000
vt 0.972634 0.047155 0.000000
vt 0.967286 0.038646 0.000000
vt 0.967286 0.051467 0.000000
vt 0.936142 0.051467 0.000000
vt 0.936142 0.038646 0.000000
vt 0.967286 0.129098 0.000000
vt 0.936142 0.129098 0.000000
vt 0.967286 0.206728 0.000000
vt 0.936142 0.206728 0.000000
vt 0.967286 0.219548 0.000000
vt 0.936142 0.219548 0.000000
vt 0.967286 0.304776 0.000000
vt 0.936142 0.304776 0.000000
vt 0.967286 0.390006 0.000000
vt 0.936142 0.390006 0.000000
vt 0.967286 0.402833 0.000000
vt 0.936142 0.402833 0.000000
vt 0.967286 0.480472 0.000000
vt 0.936142 0.480472 0.000000
vt 0.967286 0.558111 0.000000
vt 0.936142 0.558111 0.000000
vt 0.967286 0.570938 0.000000
vt 0.936142 0.570938 0.000000
vt 0.967286 0.656170 0.000000
vt 0.936142 0.656170 0.000000
vt 0.967286 0.813809 0.000000
vt 0.936142 0.813809 0.000000
vt 0.056386 0.043850 0.000000
vt 0.838263 0.043850 0.000000
vt 0.108646 0.034416 0.000000
vt 0.786002 0.034416 0.000000
vt 0.838263 0.431759 0.000000
vt 0.056386 0.431759 0.000000
vt 0.786003 0.441193 0.000000
vt 0.108647 0.441193 0.000000
vt 0.360963 0.720819 0.000000
vt 0.367961 0.732062 0.000000
vt 0.367961 0.863676 0.000000
vt 0.360963 0.874919 0.000000
vt 0.046800 0.874919 0.000000
vt 0.046800 0.720819 0.000000
vt 0.039802 0.863676 0.000000
vt 0.039802 0.732062 0.000000
# 154 texture coords

o Eraser
g Eraser
s 1
f -12/-154/-72 -7/-153/-71 -6/-152/-70 -1/-151/-69 
f -36/-150/-68 -31/-149/-67 -30/-148/-66 -25/-147/-65 
s 2
f -62/-146/-64 -70/-145/-63 -68/-144/-62 -64/-143/-61 
s 4
f -71/-142/-60 -58/-141/-59 -56/-140/-58 -67/-139/-57 
s 2
f -59/-138/-56 -52/-137/-55 -50/-136/-54 -55/-135/-53 
s 4
f -53/-134/-52 -61/-133/-51 -65/-132/-50 -49/-131/-49 
s 2
f -68/-144/-62 -70/-145/-63 -72/-130/-48 -69/-129/-47 
f -62/-128/-64 -64/-127/-61 -66/-126/-46 -63/-125/-45 
s 4
f -56/-140/-58 -58/-141/-59 -60/-124/-44 -57/-123/-43 
f -71/-142/-60 -67/-139/-57 -69/-129/-47 -72/-130/-48 
s 2
f -50/-136/-54 -52/-137/-55 -54/-122/-42 -51/-121/-41 
f -59/-138/-56 -55/-135/-53 -57/-123/-43 -60/-124/-44 
s 4
f -65/-132/-50 -61/-133/-51 -63/-125/-45 -66/-126/-46 
f -53/-134/-52 -49/-131/-49 -51/-121/-41 -54/-122/-42 
s 1
f -65/-120/-50 -66/-119/-46 -47/-118/-40 -48/-117/-39 
f -66/-119/-46 -64/-116/-61 -46/-115/-38 -47/-118/-40 
f -64/-114/-61 -68/-113/-62 -45/-112/-37 -46/-111/-38 
f -68/-113/-62 -69/-110/-47 -44/-109/-36 -45/-112/-37 
f -69/-110/-47 -67/-108/-57 -43/-107/-35 -44/-109/-36 
f -67/-108/-57 -56/-106/-58 -42/-105/-34 -43/-107/-35 
f -56/-106/-58 -57/-104/-43 -41/-103/-33 -42/-105/-34 
f -57/-104/-43 -55/-102/-53 -40/-101/-32 -41/-103/-33 
f -55/-102/-53 -50/-100/-54 -39/-99/-31 -40/-101/-32 
f -50/-100/-54 -51/-98/-41 -38/-97/-30 -39/-99/-31 
f -51/-98/-41 -49/-96/-49 -37/-95/-29 -38/-97/-30 
f -49/-96/-49 -65/-120/-50 -48/-117/-39 -37/-95/-29 
s 2
f -48/-94/-39 -47/-93/-40 -35/-92/-28 -36/-91/-68 
s 4
f -47/-93/-40 -46/-90/-38 -34/-89/-27 -35/-92/-28 
f -46/-88/-38 -45/-87/-37 -33/-86/-26 -34/-85/-27 
f -45/-87/-37 -44/-84/-36 -32/-83/-25 -33/-86/-26 
s 2
f -44/-84/-36 -43/-82/-35 -31/-81/-67 -32/-83/-25 
f -43/-82/-35 -42/-80/-34 -30/-79/-66 -31/-81/-67 
f -42/-80/-34 -41/-78/-33 -29/-77/-24 -30/-79/-66 
s 4
f -41/-78/-33 -40/-76/-32 -28/-75/-23 -29/-77/-24 
f -40/-76/-32 -39/-74/-31 -27/-73/-22 -28/-75/-23 
f -39/-74/-31 -38/-72/-30 -26/-71/-21 -27/-73/-22 
s 2
f -38/-72/-30 -37/-70/-29 -25/-69/-65 -26/-71/-21 
f -37/-70/-29 -48/-94/-39 -36/-91/-68 -25/-69/-65 
s 1
f -62/-68/-64 -63/-67/-45 -23/-66/-20 -24/-65/-19 
f -63/-67/-45 -61/-64/-51 -22/-63/-18 -23/-66/-20 
f -61/-64/-51 -53/-62/-52 -21/-61/-17 -22/-63/-18 
f -53/-62/-52 -54/-60/-42 -20/-59/-16 -21/-61/-17 
f -54/-60/-42 -52/-58/-55 -19/-57/-15 -20/-59/-16 
f -52/-58/-55 -59/-56/-56 -18/-55/-14 -19/-57/-15 
f -59/-56/-56 -60/-54/-44 -17/-53/-13 -18/-55/-14 
f -60/-54/-44 -58/-52/-59 -16/-51/-12 -17/-53/-13 
f -58/-52/-59 -71/-50/-60 -15/-49/-11 -16/-51/-12 
f -71/-50/-60 -72/-48/-48 -14/-47/-10 -15/-49/-11 
f -72/-48/-48 -70/-46/-63 -13/-45/-9 -14/-47/-10 
f -70/-46/-63 -62/-44/-64 -24/-43/-19 -13/-45/-9 
s 2
f -24/-42/-19 -23/-41/-20 -11/-40/-8 -12/-39/-72 
s 4
f -23/-41/-20 -22/-38/-18 -10/-37/-7 -11/-40/-8 
f -22/-38/-18 -21/-36/-17 -9/-35/-6 -10/-37/-7 
f -21/-36/-17 -20/-34/-16 -8/-33/-5 -9/-35/-6 
s 2
f -20/-34/-16 -19/-32/-15 -7/-31/-71 -8/-33/-5 
f -19/-32/-15 -18/-30/-14 -6/-29/-70 -7/-31/-71 
f -18/-30/-14 -17/-28/-13 -5/-27/-4 -6/-29/-70 
s 4
f -17/-28/-13 -16/-26/-12 -4/-25/-3 -5/-27/-4 
f -16/-26/-12 -15/-24/-11 -3/-23/-2 -4/-25/-3 
f -15/-24/-11 -14/-22/-10 -2/-21/-1 -3/-23/-2 
s 2
f -14/-22/-10 -13/-20/-9 -1/-19/-69 -2/-21/-1 
f -13/-20/-9 -24/-18/-19 -12/-17/-72 -1/-19/-69 
s 1
f -36/-150/-68 -35/-16/-28 -32/-15/-25 -31/-149/-67 
f -35/-16/-28 -34/-14/-27 -33/-13/-26 -32/-15/-25 
f -30/-148/-66 -29/-12/-24 -26/-11/-21 -25/-147/-65 
f -29/-12/-24 -28/-10/-23 -27/-9/-22 -26/-11/-21 
f -5/-8/-4 -4/-7/-3 -3/-6/-2 -2/-5/-1 
f -6/-152/-70 -5/-8/-4 -2/-5/-1 -1/-151/-69 
f -12/-154/-72 -11/-4/-8 -8/-3/-5 -7/-153/-71 
f -11/-4/-8 -10/-2/-7 -9/-1/-6 -8/-3/-5 
# 70 polygons

