# 3ds Max Wavefront OBJ Exporter v0.99 - (c)2007 guruware
# File Created: 08.11.2025 14:51:38

#
# object Keyboard
#

v  69.708771 44.161285 12.610867
v  69.207077 44.161285 13.094394
v  69.207077 45.426571 13.094394
v  69.708771 45.426571 12.610867
v  40.967106 45.426571 12.610867
v  41.468796 45.426571 13.094394
v  41.468796 44.161285 13.094394
v  40.967106 44.161285 12.610867
v  69.207077 44.161285 3.467877
v  69.708771 44.161285 3.951405
v  69.708771 45.426571 3.951405
v  69.207077 45.426571 3.467877
v  40.967106 44.161285 3.951405
v  41.468796 44.161285 3.467877
v  41.468796 45.426571 3.467877
v  40.967106 45.426571 3.951405
v  62.772476 44.161285 13.094394
v  62.772476 45.426571 13.094394
v  63.010914 45.426571 12.610867
v  63.010914 45.426571 3.951405
v  62.772476 45.426571 3.467877
v  62.772476 44.161285 3.467877
v  62.452587 44.161285 13.094394
v  62.452587 45.426571 13.094394
v  62.679909 45.426571 12.610867
v  62.679909 45.426571 3.951405
v  62.452587 45.426571 3.467877
v  62.452587 44.161285 3.467877
v  69.708771 44.161285 4.948883
v  69.708771 45.426571 4.948883
v  63.010914 45.426571 4.948884
v  62.679909 45.426571 4.948884
v  40.967106 45.426571 4.948884
v  40.967106 44.161285 4.948884
v  69.708771 44.161285 5.197137
v  69.708771 45.426571 5.197137
v  63.010914 45.426571 5.197137
v  62.679909 45.426571 5.197137
v  40.967106 45.426571 5.197137
v  40.967106 44.161285 5.197137
v  41.328110 45.556698 12.262934
v  62.318909 45.556698 12.262934
v  62.318909 45.556698 5.545070
v  41.328110 45.556698 5.545070
v  63.371918 45.556698 12.262934
v  69.347763 45.556698 12.262934
v  69.347763 45.556698 5.545070
v  63.371918 45.556698 5.545070
v  62.318909 45.556698 4.788338
v  62.318909 45.556698 4.111948
v  41.328110 45.556698 4.111948
v  41.328110 45.556698 4.788338
v  69.347763 45.556698 4.788338
v  69.347763 45.556698 4.111948
v  63.371918 45.556698 4.111948
v  63.371918 45.556698 4.788338
v  41.328110 45.850765 12.262935
v  62.318909 45.850765 12.262935
v  62.318909 45.850765 5.545070
v  41.328110 45.850765 5.545070
v  63.371918 45.850765 12.262935
v  69.347763 45.850765 12.262935
v  69.347763 45.850765 5.545070
v  63.371918 45.850765 5.545070
v  62.318909 45.850765 4.788338
v  62.318909 45.850765 4.111948
v  41.328110 45.850765 4.111948
v  41.328110 45.850765 4.788338
v  69.347763 45.850765 4.788337
v  69.347763 45.850765 4.111947
v  63.371918 45.850765 4.111948
v  63.371918 45.850765 4.788338
# 72 vertices

vn -0.577351 0.577350 0.577351
vn 0.577351 0.577348 0.577351
vn 0.577351 0.577349 -0.577351
vn -0.577350 0.577350 -0.577350
vn -0.382641 0.000000 0.923897
vn 0.000000 0.000000 1.000000
vn 0.000000 0.707107 0.707107
vn -0.297063 0.630304 0.717266
vn 0.923879 0.000000 0.382684
vn 1.000000 0.000000 -0.000002
vn 0.744920 0.663401 -0.070659
vn 0.742234 0.568395 0.354987
vn 0.382683 0.000000 -0.923880
vn 0.000000 0.000000 -1.000000
vn -0.000000 0.707107 -0.707107
vn 0.297108 0.630262 -0.717284
vn -0.923897 0.000000 -0.382641
vn -1.000000 0.000000 -0.000000
vn -0.760413 0.644316 0.081415
vn -0.756564 0.545988 -0.359872
vn 0.297108 0.630262 0.717284
vn 0.382683 0.000000 0.923880
vn -0.742223 0.568433 0.354950
vn -0.923897 0.000000 0.382641
vn 0.756573 0.545952 -0.359907
vn 0.923879 0.000000 -0.382684
vn -0.297063 0.630304 -0.717266
vn -0.382641 0.000000 -0.923897
vn 0.052675 0.997221 0.052675
vn -0.074694 0.995277 -0.062013
vn 0.577351 0.577349 0.577351
vn 0.577350 0.577350 -0.577351
vn -0.000000 0.707107 0.707107
vn 0.000000 0.707107 -0.707107
vn -0.052675 0.997221 0.052675
vn 0.074694 0.995276 -0.062013
vn -0.052675 0.997221 -0.052675
vn 0.052675 0.997221 -0.052675
vn 0.577350 0.577351 0.577350
vn 0.577351 0.577350 -0.577351
vn -0.577351 0.577350 -0.577351
vn -0.577350 0.577351 0.577350
vn 0.760413 0.644316 0.081413
vn -0.744920 0.663401 -0.070658
vn -0.074693 0.995277 0.062013
vn 0.074693 0.995277 0.062013
vn 0.451454 0.769661 0.451454
vn -0.451454 0.769661 0.451454
vn 0.451454 0.769661 -0.451454
vn -0.451454 0.769662 -0.451453
vn -0.451453 0.769662 0.451454
vn 0.451454 0.769662 -0.451453
vn 0.427945 0.670395 -0.606163
vn 0.427945 0.670398 0.606159
vn -0.427945 0.670395 -0.606163
vn -0.427945 0.670398 0.606159
vn 0.427945 0.670395 -0.606164
vn -0.427944 0.670395 -0.606163
vn -0.427945 0.670398 0.606160
# 59 vertex normals

vt 0.920659 0.035261 0.000000
vt 0.920659 0.840779 0.000000
vt 0.653177 0.840779 0.000000
vt 0.653177 0.035261 0.000000
vt 0.878558 0.018572 0.000000
vt 0.635974 0.018572 0.000000
vt 0.635974 0.001000 0.000000
vt 0.878558 0.001000 0.000000
vt 0.549635 0.018572 0.000000
vt 0.460744 0.018572 0.000000
vt 0.460744 0.001000 0.000000
vt 0.549635 0.001000 0.000000
vt 0.437744 0.018572 0.000000
vt 0.363423 0.018572 0.000000
vt 0.363423 0.001000 0.000000
vt 0.437744 0.001000 0.000000
vt 0.990789 0.018572 0.000000
vt 0.978797 0.018572 0.000000
vt 0.978797 0.001000 0.000000
vt 0.990789 0.001000 0.000000
vt 0.557840 0.001000 0.000000
vt 0.557840 0.018572 0.000000
vt 0.886814 0.001000 0.000000
vt 0.886814 0.018572 0.000000
vt 0.445890 0.001000 0.000000
vt 0.445890 0.018572 0.000000
vt 0.999000 0.001000 0.000000
vt 0.999000 0.018572 0.000000
vt 0.210402 0.052511 0.000000
vt 0.220930 0.063828 0.000000
vt 0.220930 0.506907 0.000000
vt 0.210402 0.511169 0.000000
vt 0.019839 0.659285 0.000000
vt 0.009177 0.648759 0.000000
vt 0.009177 0.512838 0.000000
vt 0.019839 0.517675 0.000000
vt 0.631358 0.047781 0.000000
vt 0.631358 0.389002 0.000000
vt 0.233358 0.389001 0.000000
vt 0.233358 0.047781 0.000000
vt 0.632236 0.018572 0.000000
vt 0.632236 0.001000 0.000000
vt 0.359760 0.018572 0.000000
vt 0.359760 0.001000 0.000000
vt 0.220930 0.513670 0.000000
vt 0.220930 0.649507 0.000000
vt 0.210402 0.659781 0.000000
vt 0.210402 0.518174 0.000000
vt 0.009177 0.505930 0.000000
vt 0.019839 0.510673 0.000000
vt 0.047702 0.518174 0.000000
vt 0.047702 0.511169 0.000000
vt 0.117241 0.018572 0.000000
vt 0.117241 0.001000 0.000000
vt 0.009177 0.062782 0.000000
vt 0.019839 0.052015 0.000000
vt 0.982801 0.968754 0.000000
vt 0.951646 0.968754 0.000000
vt 0.951646 0.036900 0.000000
vt 0.982801 0.036900 0.000000
vt 0.457803 0.018572 0.000000
vt 0.457803 0.001000 0.000000
vt 0.975775 0.018572 0.000000
vt 0.975775 0.001000 0.000000
vt 0.630368 0.844469 0.000000
vt 0.580561 0.844469 0.000000
vt 0.580561 0.420361 0.000000
vt 0.630368 0.420361 0.000000
vt 0.042234 0.517675 0.000000
vt 0.042234 0.510673 0.000000
vt 0.042234 0.052015 0.000000
vt 0.047702 0.052511 0.000000
vt 0.047702 0.659781 0.000000
vt 0.042234 0.659285 0.000000
vt 0.202305 0.503245 0.000000
vt 0.202305 0.060421 0.000000
vt 0.055495 0.503245 0.000000
vt 0.055495 0.060421 0.000000
vt 0.202615 0.651871 0.000000
vt 0.202615 0.526100 0.000000
vt 0.055804 0.651871 0.000000
vt 0.055804 0.526100 0.000000
vt 0.023805 0.502748 0.000000
vt 0.037932 0.502748 0.000000
vt 0.023805 0.059925 0.000000
vt 0.037932 0.059925 0.000000
vt 0.023625 0.651374 0.000000
vt 0.038080 0.651374 0.000000
vt 0.023625 0.525604 0.000000
vt 0.038080 0.525604 0.000000
vt 0.440440 0.022951 0.000000
vt 0.197820 0.022951 0.000000
vt 0.197820 0.018870 0.000000
vt 0.440440 0.018869 0.000000
vt 0.117241 0.022951 0.000000
vt 0.117241 0.018870 0.000000
vt 0.763638 0.022951 0.000000
vt 0.521125 0.022951 0.000000
vt 0.521125 0.018869 0.000000
vt 0.763638 0.018870 0.000000
vt 0.197782 0.027726 0.000000
vt 0.266886 0.027726 0.000000
vt 0.266886 0.031808 0.000000
vt 0.197782 0.031808 0.000000
vt 0.347476 0.027726 0.000000
vt 0.347476 0.031808 0.000000
vt 0.416531 0.027726 0.000000
vt 0.416531 0.031808 0.000000
vt 0.117241 0.027726 0.000000
vt 0.117241 0.031808 0.000000
vt 0.606014 0.025338 0.000000
vt 0.597765 0.027429 0.000000
vt 0.597765 0.023248 0.000000
vt 0.606014 0.025339 0.000000
vt 0.117241 0.023248 0.000000
vt 0.365673 0.025338 0.000000
vt 0.365673 0.025339 0.000000
vt 0.117241 0.027429 0.000000
vt 0.357503 0.025338 0.000000
vt 0.357503 0.025339 0.000000
vt 0.675378 0.023248 0.000000
vt 0.683503 0.023248 0.000000
vt 0.683503 0.027332 0.000000
vt 0.675378 0.027332 0.000000
vt 0.752570 0.023248 0.000000
vt 0.752570 0.027332 0.000000
vt 0.038080 0.533071 0.000000
vt 0.023625 0.533071 0.000000
vt 0.606311 0.023248 0.000000
vt 0.606311 0.027332 0.000000
# 130 texture coords

o Keyboard
g Keyboard
s 1
f -16/-130/-59 -15/-129/-58 -14/-128/-57 -13/-127/-56 
s 2
f -66/-126/-55 -50/-125/-54 -49/-124/-53 -67/-123/-52 
f -72/-122/-51 -38/-121/-50 -37/-120/-49 -69/-119/-48 
f -64/-118/-47 -51/-117/-46 -52/-116/-45 -61/-115/-44 
f -60/-114/-43 -39/-113/-42 -40/-112/-41 -57/-111/-40 
s 4
f -70/-110/-39 -71/-109/-38 -72/-122/-51 -69/-119/-48 
f -66/-126/-55 -67/-123/-52 -68/-108/-37 -65/-107/-36 
f -62/-106/-35 -63/-105/-34 -64/-118/-47 -61/-115/-44 
f -58/-104/-33 -59/-103/-32 -60/-114/-43 -57/-111/-40 
s 1
f -68/-102/-37 -67/-101/-52 -49/-100/-53 -48/-99/-31 
f -62/-98/-35 -61/-97/-44 -52/-96/-45 -53/-95/-30 
f -12/-94/-59 -11/-93/-29 -10/-92/-28 -9/-91/-56 
s 2
f -56/-90/-54 -71/-109/-38 -70/-110/-39 -55/-89/-27 
f -51/-117/-46 -45/-88/-46 -46/-87/-26 -52/-116/-45 
s 1
f -55/-86/-27 -70/-85/-39 -69/-84/-48 -54/-83/-25 
f -52/-96/-45 -46/-82/-26 -47/-81/-24 -53/-95/-30 
f -48/-99/-31 -54/-83/-25 -36/-80/-23 -35/-79/-22 
s 2
f -50/-125/-54 -56/-90/-54 -55/-89/-27 -49/-124/-53 
s 1
f -49/-100/-53 -55/-86/-27 -54/-83/-25 -48/-99/-31 
s 2
f -45/-88/-46 -59/-78/-32 -58/-77/-33 -46/-87/-26 
s 1
f -46/-82/-26 -58/-76/-33 -57/-75/-40 -47/-81/-24 
f -8/-74/-21 -7/-73/-20 -6/-72/-19 -5/-71/-18 
s 2
f -44/-70/-50 -63/-105/-34 -62/-106/-35 -43/-69/-17 
f -39/-113/-42 -33/-68/-42 -34/-67/-16 -40/-112/-41 
s 1
f -4/-66/-21 -3/-65/-28 -2/-64/-19 -1/-63/-18 
f -42/-62/-15 -53/-95/-30 -47/-81/-24 -41/-61/-14 
f -35/-79/-22 -41/-61/-14 -40/-60/-41 -34/-59/-16 
s 2
f -38/-121/-50 -44/-70/-50 -43/-69/-17 -37/-120/-49 
s 1
f -37/-58/-49 -43/-57/-17 -42/-62/-15 -36/-80/-23 
f -36/-80/-23 -42/-62/-15 -41/-61/-14 -35/-79/-22 
s 2
f -33/-68/-42 -65/-107/-36 -68/-108/-37 -34/-67/-16 
s off
f -68/-102/-37 -48/-99/-31 -31/-56/-13 -32/-55/-12 
f -48/-99/-31 -35/-79/-22 -30/-54/-11 -31/-56/-13 
f -35/-79/-22 -34/-59/-16 -29/-53/-10 -30/-54/-11 
f -34/-59/-16 -68/-102/-37 -32/-55/-12 -29/-53/-10 
f -54/-83/-25 -69/-84/-48 -27/-52/-13 -28/-51/-9 
f -69/-84/-48 -37/-58/-49 -26/-50/-8 -27/-52/-13 
f -37/-58/-49 -36/-80/-23 -25/-49/-10 -26/-50/-8 
f -36/-80/-23 -54/-83/-25 -28/-51/-9 -25/-49/-10 
f -41/-61/-14 -47/-81/-24 -23/-48/-7 -24/-47/-6 
f -47/-81/-24 -57/-75/-40 -22/-46/-5 -23/-48/-7 
f -57/-75/-40 -40/-60/-41 -21/-45/-4 -22/-46/-5 
f -40/-60/-41 -41/-61/-14 -24/-47/-6 -21/-45/-4 
f -43/-57/-17 -62/-98/-35 -19/-44/-3 -20/-43/-6 
f -62/-98/-35 -53/-95/-30 -18/-42/-2 -19/-44/-3 
f -53/-95/-30 -42/-62/-15 -17/-41/-1 -18/-42/-2 
f -42/-62/-15 -43/-57/-17 -20/-43/-6 -17/-41/-1 
f -32/-40/-12 -31/-39/-13 -15/-38/-58 -16/-37/-59 
f -31/-39/-13 -30/-36/-11 -14/-35/-57 -15/-38/-58 
f -30/-34/-11 -29/-33/-10 -13/-32/-56 -14/-31/-57 
f -29/-33/-10 -32/-40/-12 -16/-37/-59 -13/-32/-56 
f -28/-30/-9 -27/-29/-13 -11/-28/-29 -12/-27/-59 
f -27/-29/-13 -26/-26/-8 -10/-25/-28 -11/-28/-29 
f -26/-26/-8 -25/-24/-10 -9/-23/-56 -10/-25/-28 
f -25/-22/-10 -28/-30/-9 -12/-27/-59 -9/-21/-56 
f -24/-20/-6 -23/-19/-7 -7/-18/-20 -8/-17/-21 
f -23/-16/-7 -22/-15/-5 -6/-14/-19 -7/-13/-20 
f -22/-15/-5 -21/-12/-4 -5/-11/-18 -6/-14/-19 
f -21/-12/-4 -24/-20/-6 -8/-17/-21 -5/-11/-18 
f -20/-10/-6 -19/-9/-3 -3/-8/-28 -4/-7/-21 
f -19/-9/-3 -18/-6/-2 -2/-5/-19 -3/-8/-28 
f -18/-42/-2 -17/-41/-1 -1/-4/-18 -2/-3/-19 
f -17/-2/-1 -20/-10/-6 -4/-7/-21 -1/-1/-18 
# 63 polygons

