# 3ds Max Wavefront OBJ Exporter v0.99 - (c)2007 guruware
# File Created: 08.11.2025 19:30:01

#
# object Box001
#

v  147.090118 -9.654072 69.302498
v  162.436737 -9.654072 69.302498
v  147.090118 11.250605 62.368362
v  162.436737 11.250605 62.368362
v  147.090118 -9.150357 70.909126
v  162.436737 -9.131875 70.903427
v  147.090118 11.780775 63.966694
v  162.436737 11.780775 63.966694
v  148.771347 -6.833785 70.141190
v  160.755508 -6.833785 70.141190
v  160.755508 9.490659 64.726334
v  148.771347 9.490659 64.726334
v  149.047852 -6.689363 69.316223
v  160.479004 -6.689363 69.316223
v  160.479004 8.881824 64.151215
v  149.047852 8.881824 64.151215
v  156.316315 -9.646098 69.299896
v  153.616730 2.944919 65.123383
v  153.648621 -9.627617 69.294205
v  156.316315 -9.646098 62.049923
v  153.648621 -9.627617 62.044228
v  156.403427 2.893032 65.140594
# 22 vertices

vn 0.094465 -0.180500 -0.979028
vn 0.577350 0.366220 -0.729760
vn 0.577253 -0.729068 -0.367749
vn 0.234218 -0.968264 -0.087215
vn 0.469280 0.634860 0.613783
vn -0.469280 0.634860 0.613783
vn -0.469280 -0.142178 0.871529
vn 0.469279 -0.142178 0.871529
vn -0.577059 -0.727435 -0.371270
vn -0.241441 -0.961994 -0.127567
vn -0.575569 -0.373798 0.727320
vn 0.577351 0.729759 0.366220
vn 0.576893 -0.368487 0.728980
vn -0.577350 0.366220 -0.729760
vn -0.577356 0.729755 0.366221
vn -0.175510 0.481941 0.858446
vn 0.175410 0.481896 0.858491
vn -0.175521 0.126641 0.976296
vn 0.175521 0.126641 0.976296
vn -0.088827 -0.183211 -0.979052
vn 0.562759 -0.512630 -0.648470
vn -0.565995 -0.506937 -0.650127
# 22 vertex normals

vt 0.219474 0.215376 0.000000
vt 0.152039 0.325150 0.000000
vt 0.135650 0.060336 0.000000
vt 0.209381 0.055661 0.000000
vt 0.360862 0.048442 0.000000
vt 0.970146 0.048442 0.000000
vt 0.970146 0.922857 0.000000
vt 0.360862 0.922857 0.000000
vt 0.040528 0.013766 0.000000
vt 0.040528 0.099347 0.000000
vt 0.018712 0.013707 0.000000
vt 0.040528 0.214021 0.000000
vt 0.040528 0.501416 0.000000
vt 0.018712 0.501466 0.000000
vt 0.018712 0.213961 0.000000
vt 0.040528 0.701670 0.000000
vt 0.018712 0.701720 0.000000
vt 0.040528 0.989065 0.000000
vt 0.018712 0.989477 0.000000
vt 0.061734 0.913978 0.000000
vt 0.061734 0.691702 0.000000
vt 0.100776 0.691702 0.000000
vt 0.100776 0.913978 0.000000
vt 0.061734 0.472756 0.000000
vt 0.100776 0.472756 0.000000
vt 0.061734 0.259568 0.000000
vt 0.100776 0.259568 0.000000
vt 0.061734 0.024875 0.000000
vt 0.100776 0.024875 0.000000
vt 0.127619 0.244739 0.000000
vt 0.127619 0.465413 0.000000
vt 0.116041 0.465413 0.000000
vt 0.116041 0.244739 0.000000
vt 0.127619 0.652291 0.000000
vt 0.116041 0.652291 0.000000
vt 0.127619 0.807447 0.000000
vt 0.116041 0.807447 0.000000
vt 0.127619 0.046152 0.000000
vt 0.116041 0.046152 0.000000
vt 0.188414 0.906558 0.000000
vt 0.154597 0.906558 0.000000
vt 0.154597 0.746525 0.000000
vt 0.188414 0.746525 0.000000
vt 0.040528 0.134157 0.000000
vt 0.254689 0.214822 0.000000
vt 0.253853 0.054387 0.000000
vt 0.333016 0.053460 0.000000
vt 0.335690 0.318746 0.000000
vt 0.154597 0.633069 0.000000
vt 0.188414 0.633069 0.000000
vt 0.272787 0.557551 0.000000
vt 0.217155 0.725249 0.000000
vt 0.176084 0.557551 0.000000
vt 0.155833 0.347985 0.000000
vt 0.252536 0.347985 0.000000
vt 0.211311 0.515241 0.000000
# 56 texture coords

o Box001
g Box001
s 2
f -1/-56/-22 -19/-55/-21 -21/-54/-20 -6/-53/-19 
s 4
f -10/-52/-18 -9/-51/-17 -8/-50/-16 -7/-49/-15 
s 8
f -22/-48/-14 -4/-47/-13 -18/-46/-12 
s 16
f -21/-45/-20 -19/-44/-21 -15/-43/-11 -17/-42/-10 
s 32
f -19/-44/-21 -20/-41/-9 -16/-40/-8 -15/-43/-11 
s 64
f -20/-41/-9 -22/-39/-14 -18/-38/-12 -16/-40/-8 
s 4
f -18/-37/-12 -17/-36/-10 -13/-35/-7 -14/-34/-6 
f -17/-36/-10 -15/-33/-11 -12/-32/-5 -13/-35/-7 
f -15/-33/-11 -16/-31/-8 -11/-30/-4 -12/-32/-5 
f -16/-31/-8 -18/-29/-12 -14/-28/-6 -11/-30/-4 
s off
f -14/-27/-6 -13/-26/-7 -9/-25/-17 -10/-24/-18 
f -13/-26/-7 -12/-23/-5 -8/-22/-16 -9/-25/-17 
f -12/-23/-5 -11/-21/-4 -7/-20/-15 -8/-22/-16 
f -11/-19/-4 -14/-27/-6 -10/-24/-18 -7/-18/-15 
s 2
f -5/-17/-3 -1/-16/-22 -3/-15/-2 -2/-14/-1 
s 8
f -6/-13/-19 -21/-45/-20 -17/-42/-10 
s 2
f -5/-12/-3 -4/-11/-13 -22/-10/-14 -20/-9/-9 
f -1/-56/-22 -5/-12/-3 -20/-9/-9 -19/-55/-21 
s 8
f -4/-47/-13 -6/-13/-19 -17/-42/-10 -18/-46/-12 
s off
f -6/-8/-19 -4/-7/-13 -2/-14/-1 -3/-15/-2 
f -4/-6/-13 -5/-5/-3 -2/-4/-1 
f -6/-3/-19 -3/-2/-2 -1/-1/-22 
# 18 polygons - 4 triangles

