# 3ds Max Wavefront OBJ Exporter v0.99 - (c)2007 guruware
# File Created: 08.11.2025 15:00:59

#
# object Poster002
#

v  -47.243164 111.879196 -12.785398
v  -14.142794 111.879196 -12.785398
v  -47.243164 154.578690 -19.884512
v  -14.142794 154.578690 -19.884512
v  -14.142794 129.410034 -19.884516
v  -47.243164 129.410034 -19.884516
v  -14.142794 119.881531 -16.810543
v  -47.243164 119.881531 -16.810543
# 8 vertices

vn 0.000000 -0.000000 1.000000
vn 0.000000 0.155401 0.987851
vn 0.000000 0.379314 0.925268
vn 0.000000 0.449354 0.893354
# 4 vertex normals

vt 0.001000 0.999000 0.000000
vt 0.001000 0.429919 0.000000
vt 0.749424 0.429919 0.000000
vt 0.749424 0.999000 0.000000
vt 0.001000 0.203539 0.000000
vt 0.749424 0.203539 0.000000
vt 0.001000 0.001000 0.000000
vt 0.749424 0.001000 0.000000
# 8 texture coords

o Poster002
g Poster002
s 1
f -6/-8/-4 -3/-7/-3 -4/-6/-3 -5/-5/-4 
f -3/-7/-3 -1/-4/-2 -2/-3/-2 -4/-6/-3 
f -1/-4/-2 -8/-2/-1 -7/-1/-1 -2/-3/-2 
# 3 polygons

