# 3ds Max Wavefront OBJ Exporter v0.99 - (c)2007 guruware
# File Created: 08.11.2025 15:01:30

#
# object Poster1
#

v  -92.564255 111.879196 -19.884520
v  -59.463882 111.879196 -19.884520
v  -92.564255 154.578690 -19.884512
v  -59.463882 154.578690 -19.884512
# 4 vertices

vn 0.000000 -0.000000 1.000000
# 1 vertex normals

vt 0.001000 0.999000 0.000000
vt 0.001000 0.001000 0.000000
vt 0.774643 0.001000 0.000000
vt 0.774643 0.999000 0.000000
# 4 texture coords

o Poster1
g Poster1
s 1
f -2/-4/-1 -4/-3/-1 -3/-2/-1 -1/-1/-1 
# 1 polygons

