# 3ds Max Wavefront OBJ Exporter v0.99 - (c)2007 guruware
# File Created: 08.11.2025 15:02:06

#
# object poster3
#

v  -139.149811 111.879196 -19.884520
v  -106.049438 111.879196 -19.884520
v  -134.475403 149.452042 -8.088369
v  -106.049438 154.578690 -19.884512
v  -131.091217 154.578690 -15.484365
v  -139.149811 147.894333 -19.884514
# 6 vertices

vn 0.265692 -0.408781 0.873101
vn 0.021956 -0.108722 0.993830
vn 0.390613 -0.786174 0.478907
vn 0.683910 -0.707628 -0.177566
vn 0.000000 -0.000000 1.000000
# 5 vertex normals

vt 0.059091 0.725056 0.000000
vt 0.702008 0.856646 0.000000
vt 0.208845 0.887187 0.000000
vt 0.042854 0.972960 0.000000
vt 0.060927 0.025155 0.000000
vt 0.704185 0.026843 0.000000
# 6 texture coords

o poster3
g poster3
s 1
f -1/-6/-5 -3/-5/-4 -2/-4/-3 
f -2/-4/-3 -4/-3/-2 -1/-6/-5 
f -1/-6/-5 -6/-2/-1 -5/-1/-1 -3/-5/-4 
# 1 polygons - 2 triangles

